<?xml version="1.0" encoding="UTF-8"?>
<svg id="Layer_1" xmlns="http://www.w3.org/2000/svg" version="1.1" viewBox="0 0 32 32">
  <!-- Generator: Adobe Illustrator 30.0.0, SVG Export Plug-In . SVG Version: 2.1.1 Build 123)  -->
  <defs>
    <style>
      .st0 {
        fill: #808082;
      }

      .st1 {
        fill: #a0a1a2;
      }

      .st2 {
        fill: #020303;
      }

      .st3 {
        fill: #fdfefe;
      }
    </style>
  </defs>
  <g id="kSHWZT">
    <g>
      <path class="st2" d="M29.59,10.95c2.73,9.85-5.09,19.57-15.34,18.47-4.41-.47-8.46-3.04-10.85-6.73-1.19-2.36-1.94-3.92-2.11-6.65-.01-.19-.04-.36-.04-.56,0-.23,0-.46,0-.69,0-.25.03-.49.04-.73C1.87,5.4,9.9-.8,18.46.83c5.19.99,9.71,5.02,11.13,10.13ZM3.13,19.46c.07.55.83,1.94,1.15,2.46,4.02,6.55,12.7,8.56,19.06,4.05,5.65-4.01,7.37-11.56,3.87-17.6C22.65.49,11.85-.56,5.74,6.16c-3.15,3.47-4.31,8.88-2.61,13.29Z"/>
      <path class="st0" d="M29.59,10.95c.12-.03.08.06.11.13,1.87,4.9,1.25,10.9-2.36,14.86-.08.09-.3.21-.34.27-.75,1.13-2.62,2.44-3.85,3.08-7.32,3.86-16.07.81-19.72-6.45-.03-.06-.02-.13-.03-.16,2.4,3.7,6.44,6.26,10.85,6.73,10.25,1.1,18.07-8.62,15.34-18.47Z"/>
      <path class="st3" d="M1.28,14.06c-.02.25-.04.49-.04.73-.08-.16-.05-.41-.04-.58,0-.08-.04-.17.09-.15Z"/>
      <path class="st3" d="M1.28,16.05s-.08,0-.09,0c-.02-.02-.02-.51.04-.56,0,.2.03.37.04.56Z"/>
      <path class="st1" d="M27.21,8.36c3.5,6.04,1.78,13.59-3.87,17.6-6.36,4.51-15.05,2.5-19.06-4.05-.32-.51-1.08-1.91-1.15-2.46-.41-3.11-.47-5.49.87-8.43C8.22,1.77,20.66.37,27.05,8.24c.05.06.06.12.16.12ZM11.33,23.21c-.02.1.04.13.08.2.43.63,1.27.75,1.93.41,2.5-1.39,4.96-2.83,7.44-4.25,1.07-.61,2.2-1.16,3.24-1.8.76-.47,1.11-1.41.77-2.27-.05-.13-.14-.2-.18-.27-.07-.13-.06-.43-.11-.61-.15-.6-.52-.98-1.03-1.3-3.55-2.22-7.43-4.09-11-6.3-1.35-.57-2.81.22-2.92,1.71-.13,1.67,0,3.65,0,5.35,0,2.43,0,4.89,0,7.33.17.96.81,1.64,1.77,1.79Z"/>
      <path class="st0" d="M27.21,8.36c-.09,0-.11-.07-.16-.12C20.66.37,8.22,1.77,4,11.02c-1.34,2.94-1.28,5.32-.87,8.43-1.7-4.41-.54-9.82,2.61-13.29C11.85-.56,22.65.49,27.21,8.36Z"/>
      <path class="st2" d="M24.62,15.23c-.11.25-.13.52-.25.76-.25.49-.63.68-1.07.95-3.43,2.11-7.09,3.89-10.54,5.99-.46.21-.92.36-1.43.28-.96-.15-1.6-.83-1.77-1.79,0-2.45,0-4.9,0-7.33,0-1.7-.13-3.69,0-5.35.11-1.49,1.57-2.28,2.92-1.71,3.57,2.21,7.45,4.08,11,6.3.51.32.88.7,1.03,1.3.04.17.04.47.11.61ZM11.54,7.94c-.44.03-.79.35-.85.79v12.47c.03.58.48.97,1.06.93.22-.02.38-.11.57-.21,3.01-1.52,6.1-3.46,9.05-5.15.49-.28,1.04-.53,1.51-.82.44-.27.71-.61.52-1.16-.12-.36-.36-.46-.65-.64-3.47-2.13-7.14-3.97-10.63-6.07-.18-.08-.37-.15-.57-.14Z"/>
      <path class="st0" d="M11.33,23.21c.5.08.97-.07,1.43-.28,3.45-2.09,7.11-3.87,10.54-5.99.44-.27.82-.46,1.07-.95.12-.24.14-.52.25-.76.04.07.13.14.18.27.34.86,0,1.79-.77,2.27-1.04.65-2.18,1.19-3.24,1.8-2.48,1.42-4.94,2.86-7.44,4.25-.66.34-1.5.22-1.93-.41-.04-.06-.1-.1-.08-.2Z"/>
    </g>
  </g>
</svg>