<?xml version="1.0" encoding="utf-8"?>
<!-- Generator: Adobe Illustrator 30.0.0, SVG Export Plug-In . SVG Version: 9.03 Build 0)  -->
<svg version="1.0" id="Layer_1" xmlns="http://www.w3.org/2000/svg" xmlns:xlink="http://www.w3.org/1999/xlink" x="0px" y="0px"
	 viewBox="0 0 32 32" style="enable-background:new 0 0 32 32;" xml:space="preserve">
<style type="text/css">
	.st0{fill:#393837;}
	.st1{fill:#E5B54D;}
</style>
<g>
	<g>
		<path class="st0" d="M11.09,6.17 M11.28,6.04c0.62-0.37,1.45-0.68,1.88-0.97c0.17-0.15,0.25-0.36,0.3-0.64
			c0.07-0.78,0.5-1.76,0.97-2.11c1.78-1.41,4.5-0.03,4.41,2.23c0.05,0.84,1.17,0.84,1.76,1.32c1.98,1.17,3.56,3.24,4.15,5.49
			c0.64,2.54-0.05,5.57,0.62,8.09c0.27,1.03,0.81,2.02,1.69,2.74c0.45,0.38,0.98,0.58,1.17,0.97c0.21,0.39,0.14,0.97,0.15,1.53
			c0,0.4,0.01,1.04-0.23,1.29c-0.79,0.22-2.19,0.03-3.3,0.09c-2.24,0.02-4.28-0.05-5.1,0.03c-0.74,0.49-0.83,1.75-1.7,2.22
			c-1.45,1.14-3.85,0.68-4.72-0.98c-0.3-0.44-0.3-0.97-0.63-1.23c-1.92-0.12-6.96-0.02-8.4-0.07c-0.6-0.09-0.35-1.25-0.44-2.11
			c-0.01-0.55,0.11-0.99,0.66-1.28c5.52-3.61-0.1-11.19,5.86-15.91 M17.35,4.77c0.7-0.74-0.23-1.79-1.14-1.81
			c-1.26-0.21-2.47,1.8-0.66,1.75 M22.44,9.26c-2.77-4.29-9.35-4.5-12.36-0.42c-3.34,3.89,0.15,9.8-3.44,13.69
			c-0.4,0.47-0.84,0.77-1.31,1.12c-0.25,0.22-0.29,0.77-0.12,1.01c0.22,0.25,0.75,0.15,1.1,0.18c6.39,0.07,12.8-0.1,19.17,0
			c0.5-0.03,1.2,0.07,1.57-0.22c0.23-0.24,0.18-0.77-0.07-0.94c-5.33-3.23-1.53-9.95-4.44-14.29L22.44,9.26z M17.93,26.74
			c0.82-1.16-2.91-0.7-3.45-0.68c-0.88,0.37,0.43,1.36,1.05,1.51c0.82,0.25,1.75-0.08,2.31-0.7L17.93,26.74z"/>
		<path class="st0" d="M29.6,10.65c0.21-0.04,0.45,0.14,0.58,0.29c0.41,0.5,0.64,1.14,0.85,1.74c0.31,0.9,0.49,1.93,0.44,2.9
			c-0.03,0.66-0.28,1.85-0.53,2.47c-0.16,0.39-0.61,1.28-0.89,1.57c-0.12,0.13-0.45,0.2-0.6,0.09c-0.18-0.13-0.51-0.56-0.47-0.79
			c0.03-0.16,0.46-0.75,0.57-0.94c0.36-0.65,0.48-1.38,0.6-2.11c0.2-1.22-0.07-2.45-0.63-3.55c-0.22-0.43-0.62-0.67-0.54-1.19
			c0.01-0.05,0.02-0.07,0.05-0.11C29.06,10.97,29.53,10.66,29.6,10.65z"/>
		<path class="st0" d="M2.3,10.77c0.11-0.06,0.4-0.04,0.51,0.01c0.01,0.01,0.1,0.04,0.12,0.06c0.24,0.13,0.35,0.21,0.32,0.54
			c0,0.03-0.03,0.15-0.03,0.16c-0.01,0.01-0.09,0.11-0.1,0.13c-0.12,0.1-0.16,0.28-0.23,0.41c-0.89,1.55-1.07,3.2-0.59,4.92
			c0.05,0.2,0.15,0.57,0.24,0.74c0.04,0.08,0.12,0.25,0.14,0.28c0.11,0.17,0.19,0.33,0.32,0.52c0.04,0.05,0.14,0.1,0.18,0.17
			c0.18,0.31,0.05,0.56-0.19,0.78c-0.54,0.49-0.81,0.02-1.09-0.42c-0.93-1.48-1.29-3.65-0.93-5.36c0.18-0.84,0.52-1.81,0.98-2.53"/>
		<path class="st0" d="M27.89,13.11c0.06,0.09,0.21,0.43,0.26,0.55c0.49,1.26,0.4,2.5-0.24,3.68c-0.31,0.57-0.98,0.36-1.18-0.18
			c-0.12-0.32-0.01-0.29,0.1-0.49c0.28-0.49,0.5-1.49,0.34-2.04c-0.11-0.4-0.63-0.95-0.41-1.38c0.13-0.27,0.56-0.54,0.86-0.42
			C27.64,12.86,27.87,13.08,27.89,13.11z"/>
		<path class="st0" d="M5.46,13.17c0.01,0.03,0.03,0.11,0.03,0.13c0.11,0.34-0.13,0.5-0.26,0.78c-0.41,0.92-0.3,1.6,0.13,2.44
			c0.09,0.19,0.19,0.34,0.16,0.56c0,0.03-0.09,0.22-0.1,0.23c-0.05,0.05-0.08,0.06-0.15,0.14c-0.12,0.13-0.02,0.09-0.17,0.13
			c-0.03,0.01-0.07,0.07-0.26,0.05c-0.03,0-0.27-0.08-0.29-0.09c-0.04-0.03-0.16-0.16-0.2-0.2c-0.2-0.25-0.21-0.36-0.31-0.68
			c-0.23-0.71-0.3-1.26-0.23-2.01c0.03-0.3,0.2-0.87,0.34-1.14c0.13-0.25,0.38-0.66,0.68-0.68c0.08-0.01,0.39,0.08,0.43,0.13"/>
		<path class="st1" d="M21.05,15.76c0.82-0.17,1.97,0.41,2.25,1.21c0.07,0.18,0.15,0.5,0.16,0.69c0.02,0.33-0.1,1.05-0.3,1.31
			c-0.72,0.92-1.78,1.76-2.54,2.67c-0.56,0.4-0.67,0.06-1.01-0.29c-0.73-0.74-1.61-1.55-2.27-2.33c-0.72-0.85-0.26-2.59,0.75-3.07
			c0.37-0.17,1.22-0.16,1.61-0.01c0.16,0.06,0.33,0.21,0.5,0.2L21.05,15.76z M18.84,17.24c-0.22,0.04-0.41,0.37-0.43,0.57
			c-0.04,0.36,0.05,0.29,0.22,0.51c0.04,0.05,0.06,0.12,0.11,0.17c0.45,0.52,1.02,1,1.49,1.51c0.05,0.01,0.37-0.35,0.44-0.41
			c0.35-0.3,0.42-0.39,0.72-0.73c0.32-0.36,0.73-0.57,0.65-1.15c-0.05-0.34-0.49-0.61-0.8-0.46c-0.27,0.14-0.57,0.52-0.84,0.67
			c-0.04,0.02-0.06,0.05-0.11,0.05c-0.14,0-0.84-0.65-1.03-0.74C19.17,17.22,18.93,17.22,18.84,17.24z"/>
	</g>
</g>
</svg>
