<?xml version="1.0" encoding="UTF-8"?>
<svg id="Layer_1" xmlns="http://www.w3.org/2000/svg" version="1.1" viewBox="0 0 32 32">
  <!-- Generator: Adobe Illustrator 30.0.0, SVG Export Plug-In . SVG Version: 2.1.1 Build 123)  -->
  <defs>
    <style>
      .st0 {
        fill: #777;
      }

      .st1 {
        fill: #c4c4c4;
      }

      .st2 {
        fill: #797979;
      }

      .st3 {
        fill: #717171;
      }

      .st4 {
        fill: #fff;
      }

      .st5 {
        fill: #151515;
      }

      .st6 {
        fill: #fdfdfd;
      }
    </style>
  </defs>
  <g id="nJ8X9c.tif">
    <g>
      <path class="st4" d="M28.63-.75V31.7H4.48V-.75h24.15ZM22.84,1.12h-11.8c-.42,0-1.37.06-1.82.11-1.35.14-2.34,1.11-2.98,2.21-.4.69-.68,1.3-.78,2.15M24.44,27.95l-.1-5.01c.1-.28,1-.04,1.31-.95.07-.19.1-.27.11-.49"/>
      <path class="st5" d="M24.1,1.24c.76.46.78-.02,1.32,1.6-.32,6.01.43,12.48,0,18.44-.02.24-.02.49-.12.71-.19.45-.64.58-.96.67-.21.06-.34.25-.33.46.06,1.42-.21,3.11-.04,4.45.02.18.02.33.23.38.28.07.85-.11,1.1.11.03.57.04,1.09-.61,1.21l-11.83.02c-.24,0-.44.18-.47.42-.04.36.01.85,0,1.06s.11.44-.22.38c-1.13-1.12-2.21-1.6-3.67-2.01-1.31-.37-1.93-.78-2.62-1.96l-.41-1.2s-.02-.1-.02-.15c.12-6.35-.56-13.27-.12-19.57.06-.85.31-2.09.78-2.81.19-.29,1.42-1.47,1.71-1.66s.75-.23,1.05-.46c.07-.05.15-.1.24-.11.48-.05,1.31-.1,1.68-.1h11.8c.39,0,1.11.05,1.49.11ZM9.43,2.46h-.99v19.2h.99V2.46ZM8.55,22.87c-2.29.61-2.72,3.31-.7,4.62.19.12.8.44.98.46.39.04.56-.28.98-.33.85-.11,1.79.07,2.59.11.08.25.28.21.49.23,3.31.22,6.87-.18,10.21,0,0-.4,0-.81,0-1.21.02-1.17,0-2.34,0-3.5,0-.26-.21-.47-.47-.47l-14.08.11Z"/>
      <path class="st5" d="M25.42,21.99"/>
      <path class="st1" d="M12.41,30.77"/>
      <path class="st1" d="M12.35,31.37"/>
      <path class="st5" d="M6.12,3.44h-.11"/>
      <path class="st6" d="M22.99,26.84c.02.33-.02.67,0,.99-3.31-.11-6.67.14-9.98,0-.23,0-.43-.11-.6-.11-.8-.04-1.75-.23-2.59-.11-.42.06-.59.37-.98.33-.19-.02-.8-.34-.98-.46-2.02-1.31-1.59-4.01.7-4.62h14.44c-.05.36.19,1.02-.28,1.1h-12.84c-.89-.07-.81.69-.39.77l13.51.11c.02.18.04.88,0,.99l-13.23.11c-.15.01-.3,0-.44,0"/>
      <path class="st2" d="M8.55,22.87l14.55-.11c-.01,1.32.02,2.65,0,3.97h-.11c0-.05-.08-.25-.11-.33-.02-.05.03-.19,0-.21-.09-.07-.59.11-.66-.23.21-.04.7.11.77-.11.04-.11.02-.82,0-.99-.07-.64-.08-.7-.72-.77-3.89-.41-8.39.23-12.4-.11h12.84c.47-.08.22-.74.28-1.1h-14.44Z"/>
      <path class="st5" d="M22.99,27.84c-.02-.33.02-.67,0-.99,0-.04,0-.07,0-.11h.11c0,.4,0,.81,0,1.21"/>
      <path class="st3" d="M9.87,23.97c4.01.34,8.52-.3,12.4.11.63.07.65.13.72.77l-13.51-.11c-.42-.08-.5-.85.39-.77Z"/>
      <path class="st0" d="M22.88,26.4c-.52-.04-1.1.06-1.6,0"/>
      <path class="st0" d="M9.76,25.96l13.23-.11"/>
      <path class="st0" d="M13.45,26.07"/>
      <path class="st2" d="M17.65,25.79c1.71.02,2.7-.04,3.94.02.51.02.86-.05,1.4-.06.03.08,0,.83,0,.88,0,.04,0,.07,0,.11l-13.51-.11c-.33,0-.4-.58-.17-.77"/>
    </g>
  </g>
</svg>