<?xml version="1.0" encoding="UTF-8"?>
<svg id="Layer_1" xmlns="http://www.w3.org/2000/svg" version="1.1" viewBox="0 0 32 32">
  <!-- Generator: Adobe Illustrator 30.0.0, SVG Export Plug-In . SVG Version: 2.1.1 Build 123)  -->
  <defs>
    <style>
      .st0 {
        fill: #7a7a7a;
      }

      .st1 {
        fill: #fff;
      }

      .st2 {
        fill: #151515;
      }

      .st3 {
        fill: #afafaf;
      }

      .st4 {
        fill: #a9a9a9;
      }
    </style>
  </defs>
  <g id="pd4cUx.tif">
    <g>
      <path class="st1" d="M32.96,1.53v27.36H.21V1.53h32.76ZM17.93,24.85c-.14,0-.38.07-.23-.18.2-.33,1.27-1.03,1.64-1.23,2.12-1.14,3.89-1.3,6.25-.8.46.1,1.82.72,2.1.16V4.49c-.05-.08-.28-.13-.38-.15-1.95-.38-3.9-.45-5.92-.29-1.02.08-2.93.85-3.78,1.44-.29.2-1.48,1.44-1.62,1.44-.24,0-1.01-1.07-1.3-1.31-1.98-1.61-5.14-1.88-7.61-1.65-.84.08-1.66.29-2.5.38-.07.02-.25.17-.25.2v18.43c.72.16,1.33-.22,1.96-.34,3-.54,4.76-.29,7.34,1.34.16.1,1.16.87.96,1.06-.22.21-.79-.55-1.08-.45-1.41-.78-5.96-.5-7.69-.36-.87.07-1.74.24-2.61.36-.08.01-.22-.09-.22-.14V7.68c0-.08-.31-.44-.42-.47-.45-.13-1.68-.15-1.65.56v17.86c.15.9.13,1.25,1.13,1.21s2.08-.37,3.06-.45c1.66-.14,4.11-.19,5.76-.09,1.04.06,1.73.08,2.47.81.54.53.6.76,1.35,1.08.85.36,1.71.41,2.59.03.98-.42,1.67-1.7,2.67-1.82,1.54-.18,3.91-.09,5.5,0s3.18.49,4.67.55c.49.02.95.04.95-.58-.02-4.54,0-9.12,0-13.64,0-1.45.19-3.59,0-4.94-.04-.31-.29-.53-.59-.57-.34-.05-1.33-.13-1.39.31-.01,2.09,0,4.19,0,6.28,0,2.49.01,5.04,0,7.53,0,1.1.04,2.19-.09,3.28-1.06-.08-2.14-.03-3.2-.09-.57-.03-1.23-.15-1.8-.18-1.98-.1-4.32-.49-6.07.54Z"/>
      <path class="st2" d="M13.52,24.58c.27.15,1.04.6,1.26.77.2.15.4.49.69.65,1.14.64,1.58-.64,2.46-1.15,1.75-1.03,4.1-.64,6.07-.54.57.03,1.23.15,1.8.18,1.06.05,2.14,0,3.2.09.13-1.09.09-2.18.09-3.28.01-2.49,0-5.03,0-7.53,0-2.09-.01-4.19,0-6.28.06-.44,1.05-.36,1.39-.31.31.05.55.26.59.57.18,1.36-.01,3.49,0,4.94.01,4.52,0,9.09,0,13.64,0,.62-.47.6-.95.58-1.5-.05-3.15-.46-4.67-.55s-3.95-.18-5.5,0c-1.01.12-1.69,1.4-2.67,1.82-.88.38-1.74.33-2.59-.03l-1.35-1.08c-.74-.73-1.43-.75-2.47-.81-1.65-.09-4.11-.04-5.76.09-.97.08-2.05.41-3.06.45s-.98-.31-1.13-1.21V7.76c-.03-.71,1.2-.69,1.65-.56.12.03.42.39.42.47v16.77s.15.15.22.14c.87-.12,1.74-.29,2.61-.36,1.73-.15,6.29-.42,7.69.36Z"/>
      <path class="st0" d="M13.52,24.58c.28-.1.86.66,1.08.45.2-.19-.8-.96-.96-1.06-2.58-1.63-4.34-1.88-7.34-1.34-.63.11-1.24.49-1.96.34V4.54s.17-.19.25-.2c.84-.09,1.66-.3,2.5-.38,2.46-.22,5.62.04,7.61,1.65.29.23,1.06,1.31,1.3,1.31.14,0,1.33-1.24,1.62-1.44.85-.59,2.76-1.36,3.78-1.44,2.02-.16,3.97-.09,5.92.29.1.02.33.08.39.15v18.3c-.28.57-1.63-.06-2.1-.16-2.36-.49-4.13-.34-6.25.8-.37.2-1.44.9-1.64,1.23-.15.25.08.18.23.18-.88.52-1.32,1.79-2.46,1.15-.29-.16-.49-.51-.69-.65-.22-.16-.99-.62-1.26-.77ZM5.97,5.21c-.08.01-.54.11-.54.14v16.36c.11.1,2.51-.34,2.92-.36,2.49-.12,5.09.84,6.76,2.69.17.19.21.55.49.54v-15.92c0-.64-1.74-2.33-2.34-2.65-1.65-1.2-4.09-1.2-6.07-1.08-.36.02-.89.11-1.22.27ZM16.4,9.2v15.2c.13,0,.17.03.27-.06.25-.22.55-.67.85-.93,1.62-1.41,3.78-2.18,5.94-2.16,1.04.01,2.15.39,3.19.45-.07-4.04-.14-8.1-.09-12.16.02-1.27.26-2.68.1-3.95-.04-.35-.2-.32-.52-.37-3.05-.55-6.76-.43-8.89,2.13-.48.57-.78,1.08-.85,1.84Z"/>
      <path class="st4" d="M14.69,28.17c-.75-.32-.81-.54-1.35-1.08l1.35,1.08Z"/>
      <path class="st1" d="M16.4,9.2c.07-.76.38-1.27.85-1.84,2.13-2.56,5.84-2.67,8.89-2.13.32.06.48.03.52.37.16,1.27-.08,2.68-.1,3.95-.05,4.06.03,8.11.09,12.16-1.04-.06-2.15-.44-3.19-.45-2.17-.02-4.33.75-5.94,2.16-.3.26-.6.71-.85.93-.1.09-.15.07-.27.06v-15.2Z"/>
      <path class="st1" d="M13.25,6.02c.6.31,2.34,2,2.34,2.65v15.92c-.28,0-.32-.35-.49-.54-1.67-1.85-4.27-2.82-6.76-2.69-.41.02-2.82.47-2.92.36V5.35s.46-.13.54-.14c2.37-.34,5.14-.32,7.29.81Z"/>
      <path class="st3" d="M13.25,6.02c-2.15-1.12-4.92-1.14-7.29-.81.33-.16.86-.24,1.22-.27,1.98-.13,4.42-.12,6.07,1.08Z"/>
    </g>
  </g>
</svg>