<?xml version="1.0" encoding="UTF-8"?>
<svg id="Layer_2" xmlns="http://www.w3.org/2000/svg" version="1.1" viewBox="0 0 32 32">
  <!-- Generator: Adobe Illustrator 30.0.0, SVG Export Plug-In . SVG Version: 2.1.1 Build 123)  -->
  <defs>
    <style>
      .st0 {
        fill: #fff;
      }

      .st1 {
        fill: #5a6bb2;
      }
    </style>
  </defs>
  <path d="M42.12,44.45v4.37H-12.49v-4.37h54.61ZM-10.8,45.87c-.09,0-.23-.06-.21.07.01.1.39,1.16.45,1.25.08.12.17.11.31.09l.5-1.41c-.09,0-.18-.03-.25.05-.14.17-.28.85-.36,1.09-.08,0-.09-.08-.11-.13-.13-.29-.24-.69-.33-1.01ZM-4.35,46.3s-.1-.23-.13-.27c-.43-.45-1.13.08-.77.49.13.15.42.11.57.2.33.19-.08.58-.41.3-.1-.09-.05-.22-.3-.16.03.66,1.23.54,1.01-.11-.09-.28-.52-.21-.72-.38-.14-.23.19-.44.44-.22.05.04.15.29.3.16ZM-1.18,45.87h-.22v1.42h.22s.03-.44.03-.44c.31.09.25.55.63.44l-.42-.63.37-.41c-.29-.05-.39.27-.6.38v-.76ZM-3.92,46.25l-.03-.27c-.16.07-.16.1-.14.27h-.22s0,.16,0,.16h.22s.02.82.02.82l.36.05v-.16s-.22,0-.22,0v-.68s.22-.03.22-.03v-.16s-.22,0-.22,0ZM-7.46,46.03h-.16v.22s-.22,0-.22,0v.16s.22,0,.22,0l.02.82.36.05v-.16s-.22,0-.22,0v-.71s.22,0,.22,0v-.16s-.22,0-.22,0v-.22ZM-8.94,46.79c.1-.55-.63-.76-.87-.29-.33.63.59,1.15.87.46-.32.04-.66.41-.71-.16h.71ZM-7.9,46.63c.12-.13-.41-.65-.79-.22-.36.39.01,1.01.52.85.1-.03.36-.26.27-.36-.1-.11-.23.17-.32.2-.59.15-.48-.87.04-.65.06.03.18.29.29.18ZM-6.13,46.77c0-.28-.23-.51-.51-.51s-.51.23-.51.51.23.51.51.51.51-.23.51-.51ZM-5.99,46.25v1.04h.22c.04-.36-.17-.81.33-.85v-.19s-.3.11-.3.11l-.06-.11h-.18ZM-2.59,46.77c0-.28-.23-.51-.51-.51s-.51.23-.51.51.23.51.51.51.51-.23.51-.51ZM-1.57,46.63c.12-.13-.41-.65-.79-.22-.36.39.01,1.01.52.85.1-.03.36-.26.27-.36-.1-.11-.23.17-.32.2-.59.15-.48-.87.04-.65.06.03.18.29.29.18ZM35.46,46.25c-.14-.02-.1.02-.13.11-.14.35-.22.74-.36,1.09.12.02.13-.05.17-.13.14-.28.23-.76.32-1.07ZM25.41,47.01c.01-.08-.2-.85-.33-.71l.3.93h.18s.34-.93.34-.93c-.12,0-.12-.04-.18.07-.08.15-.11.42-.19.57-.03.06,0,.09-.12.07ZM29.56,46.58c-.03-.3-.45-.38-.6-.14-.24.38.47.36.5.49.02.08-.11.19-.19.19-.22,0-.18-.23-.36-.22,0,.36.4.42.63.22.23-.55-.47-.24-.46-.66.27-.14.26.12.49.11ZM31.53,46.3v.93h.16s.03-.27.03-.27c.15,0,.18.34.41.27l-.28-.41.22-.3-.38.27v-.49s-.16,0-.16,0ZM35.89,46.3c-.16-.02-.28.08-.38.19l.08.08.14-.11v.76h.16v-.93ZM36.6,46.3h-.55s-.05.49-.05.49c.12.03.2-.1.3-.1.31-.02.28.5-.04.42-.1-.02-.13-.18-.26-.16.04.26.3.35.51.21.33-.21.03-.79-.35-.54v-.22s.64.05.44-.11ZM36.99,47.12c.07-.16.35-.29.38-.47.08-.47-.65-.48-.6-.03.18.04.11-.22.3-.22.08,0,.19.11.19.19,0,.19-.63.49-.49.63h.6c.05-.2-.27-.08-.38-.11ZM37.7,47.12c.07-.16.35-.29.38-.47.08-.47-.65-.48-.6-.03.18.04.11-.22.3-.22.08,0,.19.11.19.19,0,.19-.63.49-.49.63h.6c.05-.2-.27-.08-.38-.11ZM38.52,46.3c-.16-.02-.28.08-.38.19l.08.08.14-.11v.76h.16v-.93ZM39.22,46.3h-.6c-.2.15.42.1.44.11l-.22.33c.25-.03.32.08.27.32-.05.02-.13.06-.19.06-.2-.01-.12-.25-.3-.22-.05.55.84.35.63-.11-.06-.12-.21-.13-.24-.17-.05-.05.31-.14.22-.33ZM39.65,46.31c-.4.09-.37.99.15.92.42-.06.4-1.04-.15-.92ZM40.54,46.3c-.17,0-.37.07-.33.27l.16-.11v.76h.16v-.93ZM27.54,46.36c-.24-.04-.13.07-.17.12-.05.06-.1.04-.1.05-.08.12.1.1.11.14.04.15-.05.39.06.56h.26s-.17-.13-.17-.13v-.43c.21-.04.28-.13.01-.15v-.15ZM29.89,46.36c-.24-.04-.13.07-.17.12-.05.06-.1.04-.1.05-.08.12.1.1.11.14.04.15-.05.39.06.56h.26s-.17-.13-.17-.13v-.43c.21-.04.28-.13.01-.15v-.15ZM26.5,46.9c.01-.6-.76-.45-.59.13.08.27.53.28.59-.02-.07-.06-.45.31-.49-.11h.49ZM27.14,46.59c-.26-.24-.63.06-.52.44.09.29.61.27.59-.07-.15-.02-.19.21-.35.16-.11-.03-.2-.32-.09-.41.18-.23.37.17.44.09,0-.06-.03-.16-.07-.2ZM27.96,46.53c-.35.1-.26.85.24.68.36-.12.23-.81-.24-.68ZM28.85,46.52h-.38s0,.71,0,.71h.16s-.03-.35,0-.46c.04-.11.24-.1.21-.25ZM30.77,46.88c0-.19-.16-.35-.35-.35s-.35.16-.35.35.16.35.35.35.35-.16.35-.35ZM31.35,46.59c-.26-.24-.63.06-.52.44.09.29.61.27.59-.07l-.3.17-.14-.08c-.11-.09-.02-.38.09-.41.16-.05.2.18.35.16.02-.03-.04-.17-.07-.2ZM33.04,46.59c-.26-.24-.63.06-.52.44.09.29.61.27.59-.07-.15-.02-.19.21-.35.16-.11-.03-.2-.32-.09-.41.18-.23.37.17.44.09,0-.06-.03-.16-.07-.2ZM33.42,46.53c-.35.1-.26.85.24.68.36-.12.23-.81-.24-.68ZM34.91,47.23c-.02-.18.08-.59-.11-.68l-.87-.02v.71s.16,0,.16,0c-.1-.82.37-.82.27,0,.21.03.06-.32.14-.49.08-.16.24-.12.29.04s-.08.49.12.45Z"/>
  <path d="M27.87,8.19c.06.07,1.52-.43,1.78-.44.19,0,.35.06.4.26l.5,9.76c.08,1.46.23,2.95.27,4.42.01.5.1.98-.53,1.06l-12.84,1.66c-.68,1.17-2.87,1.12-3.54-.06l-13.07-1.68c-.36-.23-.22-.45-.22-.76.05-4.22.4-8.71.65-12.95.02-.41.02-1.11.11-1.47.05-.21.2-.26.4-.25.25.01,1.71.5,1.78.44.01-.28-.02-.57,0-.85.03-.54.04-1.29.11-1.8.11-.71,1.24-.6,1.77-.58,2.57.1,5.55.9,7.72,2.27.91.58,1.73,1.27,2.54,1.98,1.38-1.28,2.94-2.4,4.71-3.09,1.65-.63,3.73-1.09,5.5-1.16.6-.02,1.65-.15,1.81.6l.13,2.62ZM15.03,23.15v-12.64c-2.58-2.8-6.28-4.09-10.05-4.18l-.71,13.13.08.08c3.88,0,7.74,1.01,10.68,3.6ZM16.4,10.51v12.64c2.92-2.63,6.83-3.61,10.7-3.6l-.71-13.21c-3.74.09-7.46,1.37-9.99,4.18ZM28.79,8.57c-.1,0-.92-.2-.93-.08,0,.09.05.18.06.27.13,3.61.42,7.2.55,10.81.02.45.22,1.22-.47,1.34-.51.08-1.3-.02-1.85,0-.82.04-1.68.15-2.49.3-1.06.19-2.24.5-3.22.93-.07.03-.22.05-.22.13,2.13-.57,4.28-.57,6.46-.32.96.11,1.92.32,2.87.48l-.77-13.87ZM3.51,8.51l-.93.2-.76,13.83c2.9-.61,5.88-.96,8.8-.31.34.08.67.22,1.03.26l-.97-.48c-1.74-.62-3.59-1.02-5.45-1.11-.55-.02-1.29.08-1.8,0-.79-.12-.49-1.22-.47-1.77.04-1.02.11-2.04.16-3.06.13-2.52.25-5.04.38-7.56Z"/>
  <path class="st0" d="M-4.35,46.3c-.15.13-.25-.12-.3-.16-.26-.22-.58-.01-.44.22.2.17.62.1.72.38.21.65-.98.78-1.01.11.25-.06.2.08.3.16.33.28.74-.11.41-.3-.15-.09-.44-.05-.57-.2-.36-.42.34-.94.77-.49.04.04.18.24.13.27Z"/>
  <path class="st0" d="M-10.8,45.87c.1.31.2.71.33,1.01.02.05.03.13.11.13.08-.24.22-.93.36-1.09.07-.08.16-.05.25-.05l-.5,1.41c-.14.02-.23.04-.31-.09-.05-.08-.43-1.15-.45-1.25-.02-.14.12-.08.21-.07Z"/>
  <path class="st0" d="M-1.18,45.87v.76c.22-.11.31-.43.6-.38l-.37.41.42.63c-.38.11-.31-.34-.63-.44l-.03.44h-.22v-1.42h.22Z"/>
  <path class="st0" d="M-8.94,46.79h-.71c.05.58.39.2.71.16-.28.7-1.2.18-.87-.46.24-.46.97-.26.87.29ZM-9.17,46.48c-.16-.13-.47-.1-.48.15h.55s-.06-.14-.07-.15Z"/>
  <path class="st0" d="M-6.13,46.77c0,.28-.23.51-.51.51s-.51-.23-.51-.51.23-.51.51-.51.51.23.51.51ZM-6.44,46.48c-.64-.33-.63.85-.05.61.17-.07.15-.46.05-.61Z"/>
  <path class="st0" d="M-2.59,46.77c0,.28-.23.51-.51.51s-.51-.23-.51-.51.23-.51.51-.51.51.23.51.51ZM-2.89,46.48c-.64-.33-.63.85-.05.61.17-.07.15-.46.05-.61Z"/>
  <path class="st0" d="M-1.57,46.63c-.1.11-.23-.16-.29-.18-.52-.22-.63.81-.04.65.1-.02.22-.3.32-.2.09.09-.17.33-.27.36-.51.16-.88-.46-.52-.85.39-.43.92.09.79.22Z"/>
  <path class="st0" d="M-7.9,46.63c-.1.11-.23-.16-.29-.18-.52-.22-.63.81-.04.65.1-.02.22-.3.32-.2.09.09-.17.33-.27.36-.51.16-.88-.46-.52-.85.39-.43.92.09.79.22Z"/>
  <path class="st0" d="M34.91,47.23c-.2.04-.07-.3-.12-.45s-.21-.2-.29-.04c-.08.17.08.52-.14.49.1-.82-.37-.82-.27,0h-.16s0-.71,0-.71l.87.02c.19.09.09.5.11.68Z"/>
  <path class="st0" d="M-3.92,46.25h.22s0,.16,0,.16l-.22.03v.68s.22,0,.22,0v.16s-.36-.05-.36-.05l-.02-.82h-.22s0-.16,0-.16h.22c-.02-.17-.02-.2.14-.27l.03.27Z"/>
  <polygon class="st0" points="-7.46 46.03 -7.46 46.25 -7.25 46.25 -7.25 46.41 -7.46 46.41 -7.46 47.12 -7.25 47.12 -7.25 47.29 -7.6 47.23 -7.63 46.41 -7.85 46.41 -7.85 46.25 -7.63 46.25 -7.63 46.03 -7.46 46.03"/>
  <path class="st0" d="M39.65,46.31c.55-.12.57.86.15.92-.52.07-.55-.83-.15-.92ZM39.7,46.42c-.25.09-.23.71.04.71.29,0,.27-.79-.04-.71Z"/>
  <path class="st0" d="M-5.99,46.25h.18s.06.11.06.11l.3-.11v.19c-.49.04-.29.49-.33.85h-.22v-1.04Z"/>
  <path class="st0" d="M29.56,46.58c-.23,0-.22-.25-.49-.11,0,.42.7.11.46.66-.23.2-.63.14-.63-.22.17-.02.13.22.36.22.07,0,.21-.11.19-.19-.03-.13-.74-.11-.5-.49.16-.24.57-.16.6.14Z"/>
  <path class="st0" d="M36.6,46.3c.2.16-.42.09-.44.11v.22c.38-.25.68.33.35.54-.21.14-.47.05-.51-.21.13-.03.16.13.26.16.32.08.35-.45.04-.42-.1,0-.18.14-.3.1l.05-.49h.55Z"/>
  <path class="st0" d="M26.5,46.9h-.49c.04.42.42.05.49.11-.05.3-.51.29-.59.02-.17-.57.6-.73.59-.13Z"/>
  <path class="st0" d="M39.22,46.3c.09.19-.26.28-.22.33.03.03.19.04.24.17.21.46-.67.66-.63.11.18-.03.1.2.3.22.05,0,.13-.04.19-.06.05-.24-.01-.35-.27-.32l.22-.33s-.64.04-.44-.11h.6Z"/>
  <path class="st0" d="M31.53,46.3h.16s0,.49,0,.49l.38-.27-.22.3.28.41c-.23.07-.26-.27-.41-.27l-.03.27h-.16v-.93Z"/>
  <path class="st0" d="M36.99,47.12c.12.03.43-.09.38.11h-.6c-.14-.14.49-.44.49-.63,0-.09-.11-.19-.19-.19-.19,0-.12.26-.3.22-.05-.46.68-.45.6.03-.03.18-.31.3-.38.47Z"/>
  <path class="st0" d="M37.7,47.12c.12.03.43-.09.38.11h-.6c-.14-.14.49-.44.49-.63,0-.09-.11-.19-.19-.19-.19,0-.12.26-.3.22-.05-.46.68-.45.6.03-.03.18-.31.3-.38.47Z"/>
  <path class="st0" d="M25.41,47.01c.12.02.09,0,.12-.07.09-.16.11-.42.19-.57.06-.11.06-.07.18-.07l-.34.92h-.18s-.3-.92-.3-.92c.13-.14.34.63.33.71Z"/>
  <path class="st0" d="M30.77,46.88c0,.19-.16.35-.35.35s-.35-.16-.35-.35.16-.35.35-.35.35.16.35.35ZM30.36,46.64c-.24.06-.15.49.04.49.28,0,.24-.56-.04-.49Z"/>
  <path class="st0" d="M27.96,46.53c.46-.13.59.56.24.68-.5.17-.59-.58-.24-.68ZM28.01,46.63c-.18.05-.21.49.05.49.29,0,.23-.57-.05-.49Z"/>
  <path class="st0" d="M33.42,46.53c.46-.13.59.56.24.68-.5.17-.59-.58-.24-.68ZM33.47,46.64c-.22.06-.19.49.04.49.28,0,.24-.56-.04-.49Z"/>
  <path class="st0" d="M27.14,46.59s.08.14.07.2c-.08.08-.26-.32-.44-.09-.11.09-.02.38.09.41.16.05.2-.18.35-.16.02.34-.5.36-.59.07-.11-.38.26-.68.52-.44Z"/>
  <path class="st0" d="M31.35,46.59s.09.18.07.2c-.15.02-.19-.21-.35-.16-.11.03-.2.32-.09.41l.14.08.3-.17c.02.34-.5.36-.59.07-.11-.38.26-.68.52-.44Z"/>
  <path class="st0" d="M33.04,46.59s.08.14.07.2c-.08.08-.26-.32-.44-.09-.11.09-.02.38.09.41.16.05.2-.18.35-.16.02.34-.5.36-.59.07-.11-.38.26-.68.52-.44Z"/>
  <path class="st0" d="M29.89,46.36v.15c.28.02.21.11,0,.15v.43s.17.14.17.14h-.26c-.11-.17-.02-.42-.06-.57-.01-.04-.19-.03-.11-.14,0,0,.06.02.1-.05.04-.05-.07-.16.17-.12Z"/>
  <path class="st0" d="M27.54,46.36v.15c.28.02.21.11,0,.15v.43s.17.14.17.14h-.26c-.11-.17-.02-.42-.06-.57-.01-.04-.19-.03-.11-.14,0,0,.06.02.1-.05.04-.05-.07-.16.17-.12Z"/>
  <path class="st0" d="M38.52,46.3v.93h-.16v-.76l-.14.11-.08-.08c.1-.11.22-.21.38-.19Z"/>
  <path class="st0" d="M35.89,46.3v.93h-.16v-.76l-.14.11-.08-.08c.1-.11.22-.21.38-.19Z"/>
  <path class="st0" d="M40.54,46.3v.93h-.16v-.76l-.16.11c-.04-.2.15-.28.33-.27Z"/>
  <path class="st0" d="M28.85,46.52c.03.16-.17.15-.21.25-.03.1.01.43,0,.46h-.16s0-.71,0-.71h.38Z"/>
  <path class="st0" d="M35.46,46.25c-.09.31-.18.79-.32,1.07-.04.08-.05.16-.17.13.14-.35.22-.74.36-1.09.04-.09,0-.13.13-.11Z"/>
  <path class="st1" d="M15.03,23.15c-2.94-2.6-6.8-3.61-10.68-3.6l-.08-.08.71-13.13c3.77.08,7.46,1.38,10.05,4.18v12.64ZM6.44,8.14c-.36.08-.42.55-.08.71,2.3.2,4.53.89,6.35,2.34.16.13.67.68.79.73.37.16.67-.15.52-.52-.03-.06-.56-.57-.66-.65-1.58-1.4-4.04-2.31-6.12-2.56-.2-.02-.62-.09-.8-.05ZM6.34,10.82c-.31.07-.38.59-.08.71,2.26.18,4.48.92,6.32,2.26.29.21,1.18,1.25,1.4.52.1-.33-.52-.78-.77-.98-1.51-1.2-3.78-2.13-5.69-2.4-.24-.03-.99-.15-1.18-.11ZM13.82,17.07c.39-.36-.39-.9-.65-1.1-1.46-1.16-3.81-2.12-5.65-2.37-.29-.04-.92-.13-1.18-.11-.42.04-.53.62-.15.73,2.29.13,4.53.91,6.39,2.24.31.22.89.94,1.25.61ZM6.06,16.5c-.33.1-.34.62.01.73,2.33.08,4.6.73,6.52,2.06.27.18.99.98,1.24.4.18-.41-.56-.85-.86-1.06-1.73-1.23-4.31-2.06-6.43-2.14-.14,0-.36-.02-.48.01Z"/>
  <path class="st1" d="M16.4,10.51c2.54-2.8,6.25-4.08,9.99-4.18l.71,13.21c-3.87,0-7.79.97-10.7,3.6v-12.64ZM24.74,8.25c-1.84.03-4.35.88-5.88,1.88-.3.19-1.5,1.09-1.58,1.37-.09.32.2.6.52.46.16-.07.62-.57.81-.72,1.83-1.44,4.11-2.09,6.41-2.27.36-.32.22-.73-.28-.72ZM24.52,10.99c-2.15.12-5.32,1.27-6.9,2.77-.19.18-.36.35-.22.65.25.53.94-.29,1.18-.46,1.86-1.38,4.22-2.14,6.53-2.26.25-.14.32-.4.1-.62-.18-.18-.46-.1-.7-.09ZM24.09,13.77c-1.91.13-4.76,1.15-6.24,2.39-.25.21-.54.38-.37.75.24.51.8-.15,1.03-.31,1.61-1.11,3.7-1.93,5.67-2.09.34-.03,1.38.17,1.34-.4,0-.1-.13-.29-.22-.33-.17-.08-.98-.03-1.21-.01ZM17.62,19.23c-.27.33.02.75.44.63.08-.03.54-.43.68-.52,1.73-1.15,3.71-1.74,5.78-1.92.37-.03,1.26.16,1.11-.51-.08-.35-.6-.27-.89-.26-2.07.06-4.51.81-6.25,1.95-.18.12-.75.51-.86.64Z"/>
  <path class="st1" d="M3.51,8.51c-.14,2.52-.25,5.04-.38,7.56-.05,1.02-.12,2.04-.16,3.06-.02.55-.32,1.65.47,1.77.51.08,1.25-.02,1.8,0,1.86.08,3.71.48,5.45,1.11l.97.48c-.35-.03-.68-.18-1.03-.26-2.92-.65-5.91-.3-8.8.31l.76-13.83.93-.2Z"/>
  <path class="st1" d="M28.79,8.57l.77,13.87c-.95-.17-1.91-.37-2.87-.48-2.18-.25-4.33-.25-6.46.32,0-.08.15-.1.22-.13.98-.43,2.16-.74,3.22-.93.81-.14,1.67-.26,2.49-.3.56-.03,1.35.08,1.85,0,.69-.11.48-.89.47-1.34-.13-3.61-.42-7.2-.55-10.81,0-.09-.05-.18-.06-.27,0-.12.83.09.93.08Z"/>
  <path d="M-9.17,46.48s.08.14.07.15h-.55c0-.25.32-.28.48-.15Z"/>
  <path d="M-6.44,46.48c.1.14.11.54-.05.61-.58.24-.59-.94.05-.61Z"/>
  <path d="M-2.89,46.48c.1.14.11.54-.05.61-.58.24-.59-.94.05-.61Z"/>
  <path d="M39.7,46.42c.32-.08.33.71.04.71-.27,0-.29-.62-.04-.71Z"/>
  <path d="M30.36,46.64c.29-.07.32.49.04.49-.19,0-.28-.43-.04-.49Z"/>
  <path d="M28.01,46.63c.28-.08.34.49.05.49-.25,0-.22-.44-.05-.49Z"/>
  <path d="M33.47,46.64c.29-.07.32.49.04.49-.23,0-.27-.43-.04-.49Z"/>
  <path d="M6.44,8.14c.18-.04.6.03.8.05,2.08.25,4.54,1.16,6.12,2.56.1.09.63.59.66.65.16.37-.15.67-.52.52-.12-.05-.63-.6-.79-.73-1.81-1.45-4.05-2.13-6.35-2.34-.34-.17-.28-.63.08-.71Z"/>
  <path d="M6.34,10.82c.19-.04.94.07,1.18.11,1.9.27,4.18,1.2,5.69,2.4.25.2.87.65.77.98-.22.73-1.12-.31-1.4-.52-1.83-1.34-4.05-2.08-6.32-2.26-.3-.12-.23-.65.08-.71Z"/>
  <path d="M6.06,16.5c.12-.04.34-.02.48-.01,2.12.08,4.7.91,6.43,2.14.3.21,1.04.65.86,1.06-.25.57-.98-.22-1.24-.4-1.91-1.32-4.19-1.98-6.52-2.06-.35-.11-.35-.63-.01-.73Z"/>
  <path d="M13.82,17.07c-.36.33-.94-.39-1.25-.61-1.85-1.33-4.1-2.11-6.39-2.24-.38-.11-.27-.69.15-.73.26-.02.89.07,1.18.11,1.85.25,4.19,1.21,5.65,2.37.25.2,1.03.74.65,1.1Z"/>
  <path d="M24.74,8.25c.5,0,.65.41.28.72-2.3.18-4.59.83-6.41,2.27-.19.15-.65.65-.81.72-.32.14-.6-.14-.52-.46.07-.28,1.28-1.18,1.58-1.37,1.54-1,4.05-1.84,5.88-1.88Z"/>
  <path d="M24.09,13.77c.24-.02,1.04-.06,1.21.01.09.04.21.23.22.33.04.57-1,.38-1.34.4-1.96.16-4.06.97-5.67,2.09-.23.16-.8.81-1.03.31-.17-.37.12-.54.37-.75,1.48-1.24,4.33-2.25,6.24-2.39Z"/>
  <path d="M24.52,10.99c.23-.01.52-.09.7.09.22.22.15.47-.1.62-2.32.12-4.67.88-6.53,2.26-.23.17-.93.99-1.18.46-.14-.3.03-.47.22-.65,1.58-1.5,4.74-2.65,6.9-2.77Z"/>
  <path d="M17.62,19.23c.11-.13.68-.52.86-.64,1.73-1.13,4.17-1.88,6.25-1.95.29,0,.81-.09.89.26.15.66-.74.48-1.11.51-2.07.18-4.05.77-5.78,1.92-.14.09-.59.5-.68.52-.41.13-.7-.3-.44-.63Z"/>
</svg>