<?xml version="1.0" encoding="utf-8"?>
<!-- Generator: Adobe Illustrator 30.0.0, SVG Export Plug-In . SVG Version: 9.03 Build 0)  -->
<svg version="1.0" id="Layer_1" xmlns="http://www.w3.org/2000/svg" xmlns:xlink="http://www.w3.org/1999/xlink" x="0px" y="0px"
	 viewBox="0 0 32 32" style="enable-background:new 0 0 32 32;" xml:space="preserve">
<style type="text/css">
	.st0{fill:#383737;}
	.st1{fill:#E5B54D;}
	.st2{fill:#F9F9F2;}
	.st3{fill:#D6D6D6;}
	.st4{fill:#F8F7F2;}
	.st5{fill:#FEFEFD;}
</style>
<g>
	<g>
		<path class="st0" d="M29.37,9.15c0.33,0.07,0.67,0.13,1,0.21c0.28,0.07,0.77,0.12,0.81,0.47l0,17.35
			c-0.15,0.72-0.64,0.99-1.35,0.96c-1.54-0.07-3.1-0.33-4.65-0.41c-1.95-0.11-4.52-0.15-6.42,0.29c-0.05,0.01-0.16,0.03-0.2,0.06
			c-0.03,0.02-0.2,0.45-0.25,0.54c-0.88,1.43-3.83,1.36-4.62-0.2c-0.04-0.09-0.1-0.31-0.16-0.35c-1.02-0.2-2.05-0.32-3.09-0.36
			c-2.8-0.12-5.58,0.18-8.36,0.46c-0.63,0-1.1-0.46-1.14-1.08c-0.04-0.55,0-1.21,0-1.77c0.03-5.18,0-10.36,0.03-15.55
			C1,9.63,1.09,9.55,1.21,9.51l1.54-0.36C2.8,9.09,2.73,8.24,2.76,8.07c0.03-0.19,0.22-0.28,0.38-0.34
			c0.51-0.19,1.18-0.35,1.71-0.49c3.67-0.96,8.4-1.38,11.17,1.73L16.08,9c1.09-1.21,2.55-1.95,4.15-2.26
			c2.51-0.49,5.12-0.02,7.55,0.64c0.35,0.1,1.09,0.26,1.38,0.41c0.08,0.04,0.19,0.14,0.2,0.23C29.39,8.18,29.33,9.11,29.37,9.15z
			 M15.78,26.22c0.02-4.52-0.02-9.05,0-13.57c0-0.07,0.02-0.13,0.03-0.2c-0.07-0.9,0.09-1.94,0-2.82c0-0.05-0.01-0.06-0.03-0.1
			c-0.04-0.09-0.55-0.58-0.65-0.68c-2-1.79-5.08-1.95-7.62-1.58c-1.42,0.2-2.82,0.58-4.18,1.02L3.3,24.99
			c3.09-0.92,6.53-1.65,9.68-0.56C14.02,24.8,15.02,25.42,15.78,26.22z M16.35,9.55v16.64c0.04,0.01,0.05-0.02,0.08-0.04
			c0.12-0.09,0.23-0.24,0.35-0.34c1.93-1.69,4.72-2.09,7.21-1.87c1.64,0.15,3.26,0.57,4.82,1.05c0.07-1.11-0.02-2.22-0.01-3.33
			c-0.84-0.84-1.7-1.66-2.54-2.5c-0.23-0.23-0.48-0.37-0.47-0.75c0-0.11,0.1-0.27,0.07-0.35c-0.01-0.05-0.34-0.28-0.38-0.36
			c-0.21,0.11-0.4,0.27-0.61,0.39c-2.8,1.64-6.47,0.22-7.34-2.91c-0.69-2.49,0.6-5.1,3-6.02c4.18-1.6,8.15,2.69,6.3,6.76
			c-0.04,0.1-0.25,0.41-0.22,0.49c0.01,0.04,0.43,0.34,0.47,0.42c0.24-0.16,0.54-0.22,0.79-0.08l0.92,0.88
			c0.05-0.23,0.04-0.47,0.04-0.7c-0.04-2.11-0.01-4.24,0-6.34c0-0.73-0.01-1.47,0-2.2c-0.01-0.14-0.24-0.17-0.36-0.2
			C24.6,6.97,19.31,6.07,16.35,9.55z M26.73,13.8c0-2.44-1.98-4.41-4.41-4.41s-4.41,1.98-4.41,4.41s1.98,4.41,4.41,4.41
			S26.73,16.24,26.73,13.8z M2.76,9.75l-1.25,0.3l0,16.86c0.03,0.12,0,0.28,0.05,0.38c0.08,0.2,0.32,0.33,0.53,0.32
			c0.87-0.03,1.83-0.21,2.71-0.28c2.89-0.25,5.88-0.4,8.74,0.16c0.37,0.07,0.74,0.2,1.09,0.26c0.03,0,0.1,0.03,0.1,0
			c-1.66-1.34-3.82-1.73-5.92-1.68c-1.9,0.05-3.79,0.4-5.65,0.72c-0.11,0.06-0.4-0.16-0.4-0.24V9.75z M30.62,10l-1.25-0.26v8.43
			l1.18,1.15l0.08,0.04V10z M26.47,17.46c0.05-0.05,0.2-0.2,0.19-0.25l-0.37-0.35l-0.42,0.47l0.37,0.34
			C26.26,17.68,26.43,17.5,26.47,17.46z M28.1,17.71c-0.07-0.07-0.44-0.44-0.48-0.46c-0.05-0.02-0.1-0.02-0.15,0
			c-0.36,0.41-0.79,0.75-1.13,1.18c0,0.02,0.01,0.03,0.01,0.05c0.06,0.14,0.55,0.54,0.69,0.67c0.74,0.73,1.49,1.46,2.24,2.19
			c0.73,0.55,1.71-0.45,1.28-1.21C29.74,19.34,28.94,18.51,28.1,17.71z M30.62,27.23v-5.49c-0.37,0.28-0.79,0.36-1.25,0.28v4.57
			c0,0.07-0.26,0.22-0.34,0.19c-3.63-0.57-7.8-1.55-11.1,0.59l-0.45,0.35c0.37-0.06,0.73-0.17,1.1-0.24
			c2.88-0.56,5.83-0.42,8.74-0.17c0.82,0.07,1.69,0.22,2.51,0.26c0.17,0.01,0.42,0.02,0.56-0.06C30.44,27.48,30.61,27.3,30.62,27.23
			z M3.3,25.64c-0.02,0.06,0,0.36,0,0.46c0,0.04,0.13,0.05,0.17,0.04c2.95-0.45,6.12-1.1,9.04-0.19c1.11,0.34,2.21,0.92,2.98,1.81
			c0.39-0.08,0.8-0.07,1.19,0c0.49-0.6,1.17-1.05,1.87-1.38c2.28-1.08,4.9-0.97,7.34-0.66c0.97,0.12,1.94,0.3,2.91,0.46v-0.59
			c-2.63-0.8-5.46-1.48-8.22-0.94c-1.35,0.27-2.68,0.84-3.67,1.82c-0.22,0.21-0.48,0.61-0.7,0.77c-0.12,0.09-0.16,0.09-0.28,0
			c-0.16-0.12-0.36-0.43-0.51-0.59c-2.9-3.05-8.09-2.36-11.71-1.17C3.64,25.49,3.31,25.59,3.3,25.64z M17.83,28.29
			c-0.01-0.01-0.29,0.05-0.35,0.05c-0.6,0.03-1.18-0.12-1.79-0.08c-0.17,0.01-0.35,0.07-0.51,0.08c-0.3,0.02-0.59-0.01-0.88-0.06
			c0.29,0.5,0.9,0.75,1.47,0.78C16.53,29.11,17.39,28.98,17.83,28.29z"/>
		<path class="st1" d="M15.34,5.71c-0.22-0.25-0.72-0.53-1.05-0.57c-0.3-0.03-0.79,0.11-0.67-0.42c0.07-0.3,0.34-0.19,0.54-0.2
			c0.9-0.06,1.56-0.79,1.63-1.67c0.01-0.18-0.03-0.5,0.01-0.65c0.07-0.22,0.52-0.21,0.57,0.02c0.04,0.2-0.01,0.54,0.01,0.76
			c0.07,0.77,0.83,1.5,1.6,1.55c0.18,0.01,0.33-0.1,0.49,0.05c0.12,0.11,0.15,0.28,0.06,0.42c-0.13,0.22-0.44,0.12-0.65,0.14
			c-0.82,0.1-1.44,0.85-1.5,1.65c-0.02,0.27,0.12,0.78-0.34,0.72c-0.35-0.04-0.24-0.44-0.25-0.67C15.76,6.4,15.63,6.04,15.34,5.71z
			 M16.51,4.54c-0.18-0.16-0.32-0.34-0.44-0.55c-0.16,0.29-0.36,0.53-0.64,0.71c-0.06,0.04-0.15,0.06-0.21,0.1
			c-0.02,0.02-0.05,0-0.03,0.06C15.58,5,15.93,5.31,16.05,5.7c0.21-0.38,0.49-0.68,0.88-0.88C16.79,4.74,16.64,4.65,16.51,4.54z"/>
		<path class="st2" d="M15.78,26.22c-0.76-0.8-1.76-1.42-2.81-1.78c-3.14-1.09-6.59-0.36-9.68,0.56l0.03-16.7
			c1.36-0.44,2.76-0.82,4.18-1.02c2.54-0.37,5.62-0.2,7.62,1.58c0.11,0.09,0.62,0.59,0.65,0.68c0.02,0.04,0.02,0.06,0.03,0.1
			c0.09,0.88-0.07,1.92,0,2.82c-0.01,0.07-0.03,0.13-0.03,0.2C15.76,17.17,15.8,21.7,15.78,26.22z"/>
		<path class="st2" d="M16.35,9.55c2.97-3.48,8.25-2.58,12.13-1.38c0.12,0.04,0.35,0.06,0.36,0.2c-0.01,0.73,0,1.47,0,2.2
			c-0.01,2.1-0.04,4.23,0,6.34c0,0.23,0.02,0.48-0.04,0.7l-0.92-0.88c-0.26-0.14-0.56-0.08-0.79,0.08
			c-0.05-0.09-0.46-0.39-0.47-0.42c-0.02-0.07,0.18-0.39,0.22-0.49c1.85-4.07-2.13-8.37-6.3-6.76c-2.4,0.92-3.69,3.52-3,6.02
			c0.87,3.13,4.54,4.55,7.34,2.91c0.21-0.12,0.4-0.28,0.61-0.39c0.04,0.08,0.37,0.32,0.38,0.36c0.02,0.08-0.07,0.24-0.07,0.35
			c0,0.38,0.25,0.52,0.47,0.75c0.84,0.85,1.7,1.66,2.54,2.5c-0.01,1.11,0.07,2.22,0.01,3.33c-1.57-0.48-3.18-0.9-4.82-1.05
			c-2.49-0.23-5.28,0.18-7.21,1.87c-0.12,0.1-0.23,0.26-0.35,0.34c-0.03,0.02-0.03,0.05-0.08,0.04V9.55z"/>
		<path class="st3" d="M2.76,9.75v16.79c0,0.08,0.28,0.3,0.4,0.24c1.86-0.32,3.76-0.67,5.65-0.72c2.1-0.05,4.26,0.34,5.92,1.68
			c0,0.03-0.08,0.01-0.1,0c-0.36-0.07-0.73-0.19-1.09-0.26c-2.86-0.56-5.85-0.42-8.74-0.16c-0.88,0.08-1.85,0.26-2.71,0.28
			c-0.21,0.01-0.44-0.12-0.53-0.32c-0.05-0.11-0.02-0.27-0.05-0.38l0-16.86L2.76,9.75z"/>
		<path class="st4" d="M3.3,25.64c0.02-0.05,0.34-0.15,0.42-0.17c3.62-1.19,8.81-1.88,11.71,1.17c0.15,0.16,0.35,0.47,0.51,0.59
			c0.12,0.09,0.16,0.09,0.28,0c0.22-0.17,0.48-0.56,0.7-0.77c0.99-0.97,2.32-1.55,3.67-1.82c2.76-0.54,5.59,0.14,8.22,0.94v0.59
			c-0.97-0.15-1.93-0.33-2.91-0.46c-2.45-0.31-5.07-0.43-7.34,0.66c-0.7,0.33-1.38,0.78-1.87,1.38c-0.39-0.07-0.8-0.07-1.19,0
			c-0.77-0.89-1.87-1.46-2.98-1.81c-2.92-0.9-6.1-0.26-9.04,0.19c-0.04,0.01-0.17,0-0.17-0.04C3.3,26.01,3.28,25.71,3.3,25.64z"/>
		<path class="st5" d="M26.73,13.8c0,2.44-1.98,4.41-4.41,4.41s-4.41-1.98-4.41-4.41s1.98-4.41,4.41-4.41S26.73,11.36,26.73,13.8z
			 M26.04,13.81c0-2.05-1.66-3.71-3.71-3.71s-3.71,1.66-3.71,3.71s1.66,3.71,3.71,3.71S26.04,15.86,26.04,13.81z"/>
		<path class="st3" d="M30.62,27.23c-0.01,0.07-0.18,0.25-0.25,0.29c-0.14,0.08-0.39,0.07-0.56,0.06c-0.82-0.04-1.68-0.19-2.51-0.26
			c-2.91-0.25-5.86-0.4-8.74,0.17c-0.37,0.07-0.73,0.19-1.1,0.24l0.45-0.35c3.3-2.14,7.47-1.16,11.1-0.59
			c0.08,0.02,0.34-0.12,0.34-0.19v-4.57c0.46,0.07,0.88,0,1.25-0.28V27.23z"/>
		<polygon class="st3" points="30.62,10 30.62,19.36 30.54,19.33 29.37,18.17 29.37,9.75 		"/>
		<path class="st5" d="M28.1,17.71c0.84,0.79,1.64,1.63,2.47,2.43c0.42,0.76-0.55,1.76-1.28,1.21c-0.75-0.72-1.5-1.45-2.24-2.19
			c-0.14-0.14-0.62-0.53-0.69-0.67c-0.01-0.02-0.02-0.03-0.01-0.05c0.34-0.42,0.77-0.77,1.13-1.18c0.05-0.02,0.1-0.03,0.15,0
			C27.66,17.27,28.03,17.64,28.1,17.71z"/>
		<path class="st3" d="M17.83,28.29c-0.44,0.69-1.3,0.81-2.06,0.77c-0.57-0.03-1.18-0.28-1.47-0.78c0.29,0.05,0.59,0.08,0.88,0.06
			c0.16-0.01,0.34-0.07,0.51-0.08c0.62-0.04,1.2,0.11,1.79,0.08C17.54,28.34,17.82,28.28,17.83,28.29z"/>
		<path class="st5" d="M26.47,17.46c-0.03,0.04-0.2,0.22-0.23,0.21l-0.37-0.34l0.42-0.47l0.37,0.35
			C26.67,17.26,26.51,17.41,26.47,17.46z"/>
		<path class="st0" d="M26.04,13.81c0,2.05-1.66,3.71-3.71,3.71s-3.71-1.66-3.71-3.71s1.66-3.71,3.71-3.71S26.04,11.76,26.04,13.81z
			 M25.47,13.81c0-1.74-1.41-3.15-3.15-3.15c-1.74,0-3.15,1.41-3.15,3.15s1.41,3.15,3.15,3.15C24.06,16.96,25.47,15.55,25.47,13.81z
			"/>
		<circle class="st4" cx="22.32" cy="13.81" r="3.15"/>
	</g>
</g>
</svg>
