<svg xmlns="http://www.w3.org/2000/svg" xmlns:xlink="http://www.w3.org/1999/xlink" width="500" zoomAndPan="magnify" viewBox="0 0 375 374.999991" height="500" preserveAspectRatio="xMidYMid meet" version="1.0"><defs><clipPath id="d6eec3fb77"><path d="M 0 0 L 375 0 L 375 375 L 0 375 Z M 0 0 " clip-rule="nonzero"/></clipPath><clipPath id="21eb91b447"><rect x="0" width="375" y="0" height="375"/></clipPath></defs><g transform="matrix(1, 0, 0, 1, 0, 0)"><g clip-path="url(#21eb91b447)"><g clip-path="url(#d6eec3fb77)"><rect x="-82.5" width="540" fill="#ffffff" height="539.999987" y="-82.499998" fill-opacity="1"/></g><path stroke-linecap="butt" transform="matrix(12.231428, 0, 0, 12.231428, -13.761871, -14.875296)" fill-opacity="1" fill="#ffffff" fill-rule="nonzero" stroke-linejoin="miter" d="M 1.999856 2.499988 L 8.999945 2.499988 M 11.000108 2.499988 L 12.000029 2.499988 M 15.000113 2.499988 L 17.999878 2.499988 M 19.000119 2.499988 L 20.999962 2.499988 M 24.000046 2.499988 L 31.000136 2.499988 M 1.999856 3.499909 L 3.000097 3.499909 M 8.000024 3.499909 L 8.999945 3.499909 M 9.999867 3.499909 L 11.000108 3.499909 M 12.999951 3.499909 L 13.999873 3.499909 M 16.999957 3.499909 L 17.999878 3.499909 M 19.000119 3.499909 L 20.000041 3.499909 M 21.999884 3.499909 L 23.000125 3.499909 M 24.000046 3.499909 L 24.999968 3.499909 M 29.999895 3.499909 L 31.000136 3.499909 M 1.999856 4.50015 L 3.000097 4.50015 M 4.000018 4.50015 L 7.000102 4.50015 M 8.000024 4.50015 L 8.999945 4.50015 M 9.999867 4.50015 L 12.000029 4.50015 M 13.999873 4.50015 L 15.000113 4.50015 M 16.000035 4.50015 L 16.999957 4.50015 M 17.999878 4.50015 L 19.000119 4.50015 M 20.000041 4.50015 L 20.999962 4.50015 M 24.000046 4.50015 L 24.999968 4.50015 M 25.999889 4.50015 L 28.999973 4.50015 M 29.999895 4.50015 L 31.000136 4.50015 M 1.999856 5.500072 L 3.000097 5.500072 M 4.000018 5.500072 L 7.000102 5.500072 M 8.000024 5.500072 L 8.999945 5.500072 M 9.999867 5.500072 L 13.999873 5.500072 M 16.000035 5.500072 L 17.999878 5.500072 M 19.000119 5.500072 L 20.000041 5.500072 M 20.999962 5.500072 L 23.000125 5.500072 M 24.000046 5.500072 L 24.999968 5.500072 M 25.999889 5.500072 L 28.999973 5.500072 M 29.999895 5.500072 L 31.000136 5.500072 M 1.999856 6.499993 L 3.000097 6.499993 M 4.000018 6.499993 L 7.000102 6.499993 M 8.000024 6.499993 L 8.999945 6.499993 M 11.000108 6.499993 L 12.000029 6.499993 M 12.999951 6.499993 L 13.999873 6.499993 M 15.000113 6.499993 L 17.999878 6.499993 M 20.999962 6.499993 L 23.000125 6.499993 M 24.000046 6.499993 L 24.999968 6.499993 M 25.999889 6.499993 L 28.999973 6.499993 M 29.999895 6.499993 L 31.000136 6.499993 M 1.999856 7.499915 L 3.000097 7.499915 M 8.000024 7.499915 L 8.999945 7.499915 M 12.999951 7.499915 L 16.999957 7.499915 M 17.999878 7.499915 L 19.000119 7.499915 M 21.999884 7.499915 L 23.000125 7.499915 M 24.000046 7.499915 L 24.999968 7.499915 M 29.999895 7.499915 L 31.000136 7.499915 M 1.999856 8.500156 L 8.999945 8.500156 M 9.999867 8.500156 L 11.000108 8.500156 M 12.000029 8.500156 L 12.999951 8.500156 M 13.999873 8.500156 L 15.000113 8.500156 M 16.000035 8.500156 L 16.999957 8.500156 M 17.999878 8.500156 L 19.000119 8.500156 M 20.000041 8.500156 L 20.999962 8.500156 M 21.999884 8.500156 L 23.000125 8.500156 M 24.000046 8.500156 L 31.000136 8.500156 M 9.999867 9.500078 L 11.000108 9.500078 M 12.000029 9.500078 L 12.999951 9.500078 M 15.000113 9.500078 L 16.000035 9.500078 M 20.000041 9.500078 L 23.000125 9.500078 M 1.999856 10.499999 L 3.000097 10.499999 M 8.000024 10.499999 L 8.999945 10.499999 M 9.999867 10.499999 L 11.000108 10.499999 M 12.999951 10.499999 L 13.999873 10.499999 M 16.000035 10.499999 L 17.999878 10.499999 M 19.000119 10.499999 L 20.999962 10.499999 M 23.000125 10.499999 L 24.999968 10.499999 M 27.00013 10.499999 L 29.999895 10.499999 M 3.000097 11.499921 L 4.000018 11.499921 M 4.99994 11.499921 L 8.000024 11.499921 M 11.000108 11.499921 L 15.000113 11.499921 M 16.000035 11.499921 L 16.999957 11.499921 M 19.000119 11.499921 L 21.999884 11.499921 M 23.000125 11.499921 L 24.000046 11.499921 M 24.999968 11.499921 L 27.00013 11.499921 M 3.000097 12.499842 L 9.999867 12.499842 M 12.000029 12.499842 L 15.000113 12.499842 M 19.000119 12.499842 L 20.000041 12.499842 M 21.999884 12.499842 L 24.000046 12.499842 M 24.999968 12.499842 L 25.999889 12.499842 M 27.00013 12.499842 L 28.000052 12.499842 M 9.999867 13.500083 L 13.999873 13.500083 M 16.000035 13.500083 L 19.000119 13.500083 M 20.999962 13.500083 L 23.000125 13.500083 M 25.999889 13.500083 L 28.000052 13.500083 M 29.999895 13.500083 L 31.000136 13.500083 M 3.000097 14.500005 L 4.000018 14.500005 M 4.99994 14.500005 L 8.999945 14.500005 M 9.999867 14.500005 L 11.000108 14.500005 M 13.999873 14.500005 L 16.999957 14.500005 M 21.999884 14.500005 L 23.000125 14.500005 M 24.000046 14.500005 L 24.999968 14.500005 M 28.999973 14.500005 L 31.000136 14.500005 M 4.99994 15.499926 L 7.000102 15.499926 M 8.999945 15.499926 L 12.000029 15.499926 M 12.999951 15.499926 L 16.999957 15.499926 M 20.999962 15.499926 L 21.999884 15.499926 M 24.000046 15.499926 L 28.000052 15.499926 M 28.999973 15.499926 L 31.000136 15.499926 M 3.000097 16.499848 L 5.999861 16.499848 M 7.000102 16.499848 L 9.999867 16.499848 M 11.000108 16.499848 L 12.999951 16.499848 M 13.999873 16.499848 L 20.999962 16.499848 M 21.999884 16.499848 L 23.000125 16.499848 M 24.999968 16.499848 L 27.00013 16.499848 M 4.000018 17.500089 L 4.99994 17.500089 M 5.999861 17.500089 L 8.000024 17.500089 M 8.999945 17.500089 L 9.999867 17.500089 M 12.000029 17.500089 L 16.999957 17.500089 M 17.999878 17.500089 L 19.000119 17.500089 M 20.000041 17.500089 L 20.999962 17.500089 M 23.000125 17.500089 L 24.999968 17.500089 M 27.00013 17.500089 L 31.000136 17.500089 M 1.999856 18.50001 L 4.99994 18.50001 M 7.000102 18.50001 L 11.000108 18.50001 M 12.000029 18.50001 L 12.999951 18.50001 M 13.999873 18.50001 L 15.000113 18.50001 M 16.000035 18.50001 L 17.999878 18.50001 M 19.000119 18.50001 L 20.000041 18.50001 M 20.999962 18.50001 L 21.999884 18.50001 M 28.000052 18.50001 L 28.999973 18.50001 M 1.999856 19.499932 L 3.000097 19.499932 M 8.999945 19.499932 L 9.999867 19.499932 M 12.999951 19.499932 L 13.999873 19.499932 M 17.999878 19.499932 L 19.000119 19.499932 M 20.000041 19.499932 L 27.00013 19.499932 M 29.999895 19.499932 L 31.000136 19.499932 M 1.999856 20.499853 L 4.000018 20.499853 M 4.99994 20.499853 L 5.999861 20.499853 M 8.000024 20.499853 L 16.999957 20.499853 M 17.999878 20.499853 L 20.000041 20.499853 M 20.999962 20.499853 L 21.999884 20.499853 M 23.000125 20.499853 L 27.00013 20.499853 M 28.000052 20.499853 L 28.999973 20.499853 M 29.999895 20.499853 L 31.000136 20.499853 M 1.999856 21.500094 L 3.000097 21.500094 M 4.000018 21.500094 L 8.000024 21.500094 M 8.999945 21.500094 L 12.000029 21.500094 M 13.999873 21.500094 L 15.000113 21.500094 M 16.000035 21.500094 L 19.000119 21.500094 M 20.999962 21.500094 L 23.000125 21.500094 M 24.000046 21.500094 L 24.999968 21.500094 M 27.00013 21.500094 L 28.000052 21.500094 M 1.999856 22.500016 L 3.000097 22.500016 M 4.99994 22.500016 L 5.999861 22.500016 M 8.000024 22.500016 L 8.999945 22.500016 M 19.000119 22.500016 L 20.000041 22.500016 M 20.999962 22.500016 L 27.00013 22.500016 M 28.000052 22.500016 L 31.000136 22.500016 M 9.999867 23.499938 L 11.000108 23.499938 M 13.999873 23.499938 L 16.000035 23.499938 M 17.999878 23.499938 L 19.000119 23.499938 M 20.000041 23.499938 L 20.999962 23.499938 M 21.999884 23.499938 L 23.000125 23.499938 M 25.999889 23.499938 L 28.999973 23.499938 M 1.999856 24.499859 L 8.999945 24.499859 M 15.000113 24.499859 L 19.000119 24.499859 M 20.999962 24.499859 L 23.000125 24.499859 M 24.000046 24.499859 L 24.999968 24.499859 M 25.999889 24.499859 L 28.999973 24.499859 M 1.999856 25.5001 L 3.000097 25.5001 M 8.000024 25.5001 L 8.999945 25.5001 M 11.000108 25.5001 L 12.000029 25.5001 M 13.999873 25.5001 L 16.000035 25.5001 M 17.999878 25.5001 L 19.000119 25.5001 M 20.000041 25.5001 L 23.000125 25.5001 M 25.999889 25.5001 L 28.000052 25.5001 M 28.999973 25.5001 L 31.000136 25.5001 M 1.999856 26.500022 L 3.000097 26.500022 M 4.000018 26.500022 L 7.000102 26.500022 M 8.000024 26.500022 L 8.999945 26.500022 M 12.000029 26.500022 L 12.999951 26.500022 M 15.000113 26.500022 L 16.000035 26.500022 M 17.999878 26.500022 L 19.000119 26.500022 M 20.999962 26.500022 L 28.000052 26.500022 M 1.999856 27.499943 L 3.000097 27.499943 M 4.000018 27.499943 L 7.000102 27.499943 M 8.000024 27.499943 L 8.999945 27.499943 M 12.000029 27.499943 L 12.999951 27.499943 M 16.999957 27.499943 L 19.000119 27.499943 M 20.000041 27.499943 L 23.000125 27.499943 M 27.00013 27.499943 L 28.000052 27.499943 M 28.999973 27.499943 L 29.999895 27.499943 M 1.999856 28.499865 L 3.000097 28.499865 M 4.000018 28.499865 L 7.000102 28.499865 M 8.000024 28.499865 L 8.999945 28.499865 M 11.000108 28.499865 L 12.000029 28.499865 M 12.999951 28.499865 L 15.000113 28.499865 M 16.999957 28.499865 L 19.000119 28.499865 M 23.000125 28.499865 L 28.000052 28.499865 M 28.999973 28.499865 L 29.999895 28.499865 M 1.999856 29.500106 L 3.000097 29.500106 M 8.000024 29.500106 L 8.999945 29.500106 M 12.999951 29.500106 L 16.000035 29.500106 M 23.000125 29.500106 L 24.000046 29.500106 M 24.999968 29.500106 L 25.999889 29.500106 M 27.00013 29.500106 L 28.999973 29.500106 M 29.999895 29.500106 L 31.000136 29.500106 M 1.999856 30.500027 L 8.999945 30.500027 M 9.999867 30.500027 L 11.000108 30.500027 M 12.000029 30.500027 L 13.999873 30.500027 M 15.000113 30.500027 L 17.999878 30.500027 M 19.000119 30.500027 L 20.000041 30.500027 M 20.999962 30.500027 L 21.999884 30.500027 M 23.000125 30.500027 L 28.999973 30.500027 " stroke="#000000" stroke-width="1" stroke-opacity="1" stroke-miterlimit="4"/></g></g></svg>