<?xml version="1.0" encoding="utf-8"?>
<!-- Generator: Adobe Illustrator 30.0.0, SVG Export Plug-In . SVG Version: 9.03 Build 0)  -->
<svg version="1.0" id="Layer_1" xmlns="http://www.w3.org/2000/svg" xmlns:xlink="http://www.w3.org/1999/xlink" x="0px" y="0px"
	 viewBox="0 0 32 32" style="enable-background:new 0 0 32 32;" xml:space="preserve">
<style type="text/css">
	.st0{fill:#A0A09F;}
	.st1{fill:#363636;}
	.st2{opacity:0.61;fill:#FFFFFF;}
	.st3{fill:#E3B450;}
</style>
<g>
	<g>
		<path class="st0" d="M23.05,1.44c0.66,0.55,1.05,1.37,1.07,2.24c0,7.32-0.02,14.64,0,21.94c0,0.79,0.04,1.63,0,2.42
			c-0.07,1.52-1.12,2.72-2.65,2.88l-10.25,0c-1.4-0.11-2.58-1.26-2.7-2.66l0-24.7c0.08-1.48,1.25-2.69,2.75-2.76l10.27,0
			C22.06,0.88,22.64,1.09,23.05,1.44z M23.29,1.97c-0.44-0.53-0.99-0.87-1.69-0.98l-10.44,0C9.9,1.1,8.79,2.16,8.72,3.45
			C8.71,11.37,8.74,19.3,8.7,27.22c0,0.53-0.04,1.17,0.14,1.67c0.34,0.97,1.33,1.76,2.37,1.84l10.15,0
			c1.33-0.08,2.48-1.18,2.56-2.52c0.05-0.77,0-1.65,0-2.43c0.01-6.94,0.04-13.88,0-20.81C23.91,3.75,24.11,2.95,23.29,1.97z"/>
		<path class="st1" d="M23.29,1.97c0.82,0.99,0.63,1.78,0.64,2.99c0.04,6.93,0.01,13.88,0,20.81c0,0.78,0.05,1.66,0,2.43
			c-0.09,1.34-1.23,2.44-2.56,2.52l-10.15,0c-1.03-0.07-2.03-0.86-2.37-1.84c-0.17-0.5-0.14-1.15-0.14-1.67
			C8.74,19.3,8.71,11.37,8.72,3.45C8.79,2.16,9.9,1.1,11.16,0.99l10.44,0C22.29,1.1,22.84,1.44,23.29,1.97z M22.72,29.63
			c0.38-0.36,0.64-0.84,0.72-1.36c-0.02-7.67,0.02-15.38,0-23.03c0-1.43,0.26-2.66-1.14-3.51c-0.39-0.23-0.72-0.27-1.16-0.29
			l-9.71,0C10.33,1.4,9.28,2.39,9.2,3.47c-0.06,0.77,0,1.68,0,2.48c-0.01,6.35,0,12.73-0.02,19.08c0,1-0.06,2.13,0,3.12
			c0.07,1.15,1.05,2.04,2.18,2.1c1.45,0.08,2.99-0.04,4.44-0.02c1.79-0.03,3.67,0.12,5.45,0.02C21.82,30.22,22.32,30.02,22.72,29.63
			z"/>
		<path class="st0" d="M22.72,29.63c-0.4,0.39-0.9,0.59-1.46,0.62c-1.78,0.1-3.66-0.05-5.45-0.02c-1.45-0.02-3,0.1-4.44,0.02
			c-1.13-0.06-2.11-0.95-2.18-2.1c-0.06-0.99,0-2.11,0-3.12C9.2,18.67,9.19,12.3,9.2,5.95c0-0.79-0.06-1.7,0-2.48
			c0.08-1.08,1.12-2.07,2.22-2.02l9.71,0c0.44,0.02,0.78,0.05,1.16,0.29c1.4,0.85,1.13,2.07,1.14,3.51c0.02,7.64-0.01,15.35,0,23.03
			C23.36,28.8,23.1,29.27,22.72,29.63z M9.47,3.41v1.8l0.17,0.02l13.37,0l0.17-0.02c-0.02-0.5,0.02-1.01,0-1.52
			c-0.04-1.09-0.68-1.81-1.76-1.98l-10.16,0C10.38,1.74,9.56,2.54,9.47,3.41z M23.18,5.53H9.46v20.65h13.71V5.53z M23.18,26.53
			c-0.06,0-0.11-0.02-0.17-0.02c-0.96-0.05-2.03,0-3,0c-3.31,0.01-6.64,0.03-9.95,0c-0.08,0-0.56,0-0.59,0.04
			c0.01,0.53-0.04,1.1-0.01,1.62c0.06,0.92,0.76,1.67,1.66,1.82l10.31,0c0.78-0.03,1.74-0.93,1.74-1.72V26.53z"/>
		<path class="st2" d="M23.18,5.53v20.65H9.46V5.53H23.18z M12.96,12.58c-1.08,1.15-1.41,2.59-1.3,4.14c0.06,0.18,0.3,0.21,0.4,0.04
			c-0.06-1.26,0.12-2.43,0.86-3.46c1.97-2.74,6.03-2.19,7.35,0.87c0.35,0.81,0.35,1.7,0.35,2.57c0.1,0.19,0.37,0.16,0.39-0.07
			c0.1-1.06-0.07-2.22-0.59-3.15C18.87,10.76,15.13,10.27,12.96,12.58z M12.19,17.89c-0.08,0.09,0,0.28,0.11,0.31
			c0.34,0.08,0.66-0.36,0.69-0.66c0.07-0.81-0.1-1.64,0.09-2.45c0.65-2.9,4.39-3.66,6.06-1.15c0.82,1.24,0.48,2.23,0.59,3.58
			c0.01,0.18,0.12,0.45,0.26,0.56c0.15,0.12,0.39,0.22,0.53,0.03c0.17-0.23-0.13-0.29-0.26-0.44c-0.15-0.18-0.13-0.45-0.13-0.67
			c0-0.91,0.08-1.81-0.3-2.68c-1.15-2.66-4.63-3.14-6.45-0.87c-0.99,1.23-0.81,2.64-0.82,4.13c-0.01,0.05-0.09,0.12-0.13,0.16
			C12.38,17.76,12.22,17.85,12.19,17.89z M16.04,12.9c-1.19,0.09-2.23,1.09-2.5,2.23c-0.09,0.37-0.07,0.67-0.07,1.03
			c0,0.62-0.01,1.24,0.01,1.86c0.09,0.12,0.19,0.12,0.31,0.05c0.13-0.08,0.07-0.2,0.08-0.34c0.09-1.39-0.3-2.73,0.86-3.78
			c1.59-1.43,3.95-0.29,4.08,1.77c0.05,0.73-0.03,1.5,0,2.23c0.08,0.24,0.37,0.22,0.42-0.02c-0.05-0.83,0.08-1.74-0.04-2.55
			C18.96,13.81,17.62,12.77,16.04,12.9z M16.12,13.8c-0.96,0.08-1.7,0.93-1.77,1.87l0.01,2.36c0.15,0.13,0.38,0.09,0.41-0.12
			c0.12-1.16-0.42-2.93,0.92-3.55c1.09-0.5,2.16,0.29,2.23,1.42c0.04,0.7-0.03,1.45,0,2.15c0.04,0.25,0.4,0.22,0.42,0.04
			c-0.11-1.12,0.32-2.64-0.5-3.54C17.38,13.96,16.78,13.75,16.12,13.8z M15.26,17.54c0.29,0.14,0.39-0.1,0.4-0.35
			c0.01-0.48-0.05-0.98,0-1.46c0.05-0.51,0.69-0.8,1.1-0.47c0.27,0.22,0.25,0.47,0.26,0.78c0.01,0.39,0.05,0.83,0.02,1.23
			c-0.03,0.43-0.45,1-0.74,1.31c-0.46,0.5-1.2,0.96-1.87,1.11c-0.12,0.03-0.46,0.05-0.52,0.08c-0.08,0.04-0.12,0.35,0.09,0.37
			c0.33,0.04,0.75-0.09,1.06-0.21c0.48-0.19,0.93-0.49,1.32-0.83c0.43,0.43,0.97,0.77,1.56,0.93c0.17,0.05,0.74,0.21,0.85,0.05
			c0.05-0.07,0.04-0.26-0.03-0.31c-0.37-0.05-0.7-0.09-1.04-0.25c-0.37-0.17-0.76-0.43-1.05-0.72c0.34-0.39,0.66-0.83,0.78-1.35
			c-0.03-0.55,0.04-1.13,0-1.67c-0.09-1.4-2.02-1.45-2.19-0.1L15.26,17.54z M16.32,15.55c-0.1,0.01-0.16,0.07-0.17,0.17
			c-0.09,0.62,0.17,1.29-0.18,1.85c-0.5,0.8-1.65,1.47-2.62,1.31c-0.16-0.03-0.3-0.13-0.44-0.05c-0.1,0.06-0.12,0.24-0.06,0.33
			c0.06,0.08,0.37,0.13,0.48,0.15c1.3,0.16,2.82-0.75,3.24-2l0-1.63C16.53,15.58,16.41,15.54,16.32,15.55z M17.7,18.41
			c-0.09-0.06-0.25-0.16-0.36-0.12c-0.04,0.02-0.17,0.3-0.12,0.36c0.32,0.2,0.63,0.43,1,0.55c0.43,0.14,1.05,0.19,1.49,0.05
			c0.17-0.06,0.23-0.15,0.16-0.33c-0.08-0.2-0.38-0.06-0.52-0.03C18.66,18.99,18.23,18.77,17.7,18.41z"/>
		<path class="st1" d="M9.47,3.41c0.1-0.88,0.91-1.67,1.8-1.7l10.16,0c1.08,0.17,1.72,0.89,1.76,1.98c0.02,0.5-0.02,1.01,0,1.52
			l-0.17,0.02l-13.37,0L9.47,5.21V3.41z M14.3,3.41c0-0.22-0.18-0.4-0.4-0.4c-0.22,0-0.4,0.18-0.4,0.4c0,0.22,0.18,0.4,0.4,0.4
			C14.12,3.81,14.3,3.63,14.3,3.41z M14.91,3.65c0.08,0.07,0.13,0.09,0.24,0.11c0.79-0.06,1.7,0.08,2.47,0
			c0.4-0.04,0.43-0.57,0.1-0.72l-2.63,0C14.79,3.08,14.68,3.45,14.91,3.65z"/>
		<path class="st1" d="M23.18,26.53v1.74c0,0.79-0.96,1.69-1.74,1.72l-10.31,0c-0.9-0.15-1.6-0.9-1.66-1.82
			c-0.03-0.52,0.02-1.09,0.01-1.62c0.03-0.04,0.5-0.04,0.59-0.04c3.31,0.03,6.64,0.01,9.95,0c0.97,0,2.04-0.05,3,0
			C23.07,26.51,23.12,26.53,23.18,26.53z M17.76,28.32c0-0.79-0.64-1.43-1.43-1.43c-0.79,0-1.43,0.64-1.43,1.43s0.64,1.43,1.43,1.43
			C17.12,29.75,17.76,29.11,17.76,28.32z"/>
		<path class="st3" d="M12.19,17.89c0.03-0.04,0.2-0.12,0.25-0.17c0.04-0.04,0.11-0.1,0.13-0.16c0.01-1.49-0.17-2.9,0.82-4.13
			c1.82-2.27,5.3-1.79,6.45,0.87c0.37,0.86,0.3,1.76,0.3,2.68c0,0.22-0.02,0.5,0.13,0.67c0.13,0.15,0.43,0.21,0.26,0.44
			c-0.14,0.19-0.38,0.09-0.53-0.03c-0.14-0.11-0.25-0.38-0.26-0.56c-0.11-1.35,0.24-2.34-0.59-3.58c-1.67-2.52-5.41-1.75-6.06,1.15
			c-0.18,0.81-0.02,1.64-0.09,2.45c-0.03,0.31-0.34,0.74-0.69,0.66C12.18,18.17,12.11,17.98,12.19,17.89z"/>
		<path class="st3" d="M12.96,12.58c2.17-2.31,5.92-1.82,7.46,0.93c0.52,0.93,0.69,2.09,0.59,3.15c-0.02,0.23-0.29,0.26-0.39,0.07
			c0-0.87,0-1.76-0.35-2.57c-1.32-3.06-5.38-3.61-7.35-0.87c-0.74,1.03-0.92,2.21-0.86,3.46c-0.1,0.18-0.34,0.14-0.4-0.04
			C11.55,15.17,11.88,13.73,12.96,12.58z"/>
		<path class="st3" d="M16.04,12.9c1.58-0.12,2.92,0.91,3.16,2.48c0.12,0.82,0,1.72,0.04,2.55c-0.05,0.24-0.34,0.26-0.42,0.02
			c-0.04-0.73,0.04-1.5,0-2.23c-0.13-2.06-2.5-3.2-4.08-1.77c-1.16,1.05-0.77,2.39-0.86,3.78c-0.01,0.14,0.05,0.27-0.08,0.34
			c-0.12,0.07-0.22,0.07-0.31-0.05c-0.02-0.62-0.01-1.24-0.01-1.86c0-0.37-0.02-0.67,0.07-1.03C13.81,13.99,14.85,12.99,16.04,12.9z
			"/>
		<path class="st3" d="M15.26,17.54l0-1.86c0.17-1.35,2.1-1.3,2.19,0.1c0.04,0.54-0.03,1.12,0,1.67c-0.12,0.51-0.44,0.96-0.78,1.35
			c0.29,0.28,0.68,0.55,1.05,0.72c0.34,0.15,0.67,0.2,1.04,0.25c0.07,0.05,0.08,0.24,0.03,0.31c-0.12,0.16-0.68,0-0.85-0.05
			c-0.59-0.17-1.12-0.51-1.56-0.93c-0.39,0.34-0.83,0.64-1.32,0.83c-0.3,0.12-0.73,0.25-1.06,0.21c-0.21-0.03-0.17-0.33-0.09-0.37
			c0.07-0.03,0.41-0.05,0.52-0.08c0.67-0.15,1.41-0.61,1.87-1.11c0.29-0.31,0.71-0.88,0.74-1.31c0.03-0.39-0.01-0.84-0.02-1.23
			c-0.01-0.32,0.01-0.56-0.26-0.78c-0.42-0.33-1.05-0.04-1.1,0.47c-0.05,0.49,0.01,0.98,0,1.46C15.65,17.44,15.55,17.67,15.26,17.54
			z"/>
		<path class="st3" d="M16.12,13.8c0.66-0.06,1.26,0.15,1.71,0.65c0.82,0.9,0.4,2.42,0.5,3.54c-0.02,0.18-0.38,0.21-0.42-0.04
			c-0.04-0.71,0.04-1.45,0-2.15c-0.07-1.13-1.14-1.92-2.23-1.42c-1.34,0.62-0.8,2.38-0.92,3.55c-0.03,0.21-0.26,0.25-0.41,0.12
			l-0.01-2.36C14.42,14.74,15.15,13.89,16.12,13.8z"/>
		<path class="st3" d="M16.32,15.55c0.1-0.01,0.21,0.03,0.25,0.13l0,1.63c-0.42,1.25-1.94,2.16-3.24,2
			c-0.11-0.01-0.41-0.06-0.48-0.15c-0.06-0.09-0.05-0.27,0.06-0.33c0.15-0.08,0.28,0.02,0.44,0.05c0.96,0.16,2.12-0.51,2.62-1.31
			c0.35-0.56,0.1-1.23,0.18-1.85C16.16,15.62,16.22,15.56,16.32,15.55z"/>
		<path class="st3" d="M17.7,18.41c0.53,0.36,0.95,0.58,1.64,0.47c0.14-0.02,0.44-0.17,0.52,0.03c0.07,0.18,0.01,0.27-0.16,0.33
			c-0.44,0.15-1.05,0.09-1.49-0.05c-0.37-0.12-0.68-0.34-1-0.55c-0.04-0.06,0.08-0.34,0.12-0.36C17.45,18.25,17.61,18.35,17.7,18.41
			z"/>
		<path class="st0" d="M14.91,3.65c-0.22-0.2-0.12-0.57,0.18-0.61l2.63,0c0.33,0.16,0.3,0.68-0.1,0.72c-0.78,0.08-1.68-0.06-2.47,0
			C15.04,3.74,14.98,3.72,14.91,3.65z M17.69,3.5c0.03-0.2-0.06-0.21-0.23-0.22c-0.75-0.05-1.56,0.04-2.31,0
			c-0.12,0.01-0.18,0.22,0.02,0.24c0.78-0.04,1.62,0.05,2.39,0C17.6,3.52,17.64,3.51,17.69,3.5z"/>
		<circle class="st0" cx="13.9" cy="3.41" r="0.4"/>
		<path class="st0" d="M17.76,28.32c0,0.79-0.64,1.43-1.43,1.43c-0.79,0-1.43-0.64-1.43-1.43s0.64-1.43,1.43-1.43
			C17.12,26.89,17.76,27.53,17.76,28.32z M17.53,28.32c0-0.66-0.53-1.19-1.19-1.19c-0.66,0-1.19,0.53-1.19,1.19s0.53,1.19,1.19,1.19
			C16.99,29.52,17.53,28.98,17.53,28.32z"/>
		<path class="st1" d="M17.69,3.5c-0.04,0.01-0.08,0.02-0.13,0.02c-0.78,0.05-1.61-0.04-2.39,0c-0.2-0.02-0.14-0.23-0.02-0.24
			c0.76,0.04,1.57-0.05,2.31,0C17.63,3.29,17.72,3.3,17.69,3.5z"/>
		<circle class="st1" cx="16.33" cy="28.32" r="1.19"/>
	</g>
</g>
</svg>
