<?xml version="1.0" encoding="UTF-8"?>
<svg xmlns="http://www.w3.org/2000/svg" version="1.1" viewBox="0 0 32 32">
  <!-- Generator: Adobe Illustrator 30.0.0, SVG Export Plug-In . SVG Version: 2.1.1 Build 123)  -->
  <defs>
    <style>
      .st0 {
        fill: none;
      }

      .st1 {
        fill: #d1d3d4;
      }

      .st1, .st2, .st3, .st4 {
        stroke: #606161;
        stroke-miterlimit: 10;
      }

      .st1, .st4 {
        stroke-width: .25px;
      }

      .st2 {
        fill: #7d7d7d;
      }

      .st2, .st3 {
        stroke-width: .5px;
      }

      .st3, .st4 {
        fill: #999;
      }
    </style>
  </defs>
  <g id="Layer_2">
    <rect class="st1" x="4" y="9.28" width="24.04" height="19.75"/>
  </g>
  <g id="Layer_1">
    <path class="st3" d="M1.35,5.76c.66-2.02,2.32-2.72,4.36-2.51v3.1c0,1.45,1.66,2.92,3.1,2.89s3-1.52,3-3v-3h9.58v3.21c0,.19.29.92.39,1.13,1.03,2.01,3.8,2.19,5.1.33.09-.13.5-.94.5-1.03v-3.49c.15-.23.73-.08.98,0,1.11.32,2.1,1.57,2.18,2.72v22.55c-.2,1.37-1.1,2.36-2.4,2.78H3.64c-1.18-.47-1.82-1.23-2.29-2.4V5.76ZM4.84,10.01v17.86h22.22V10.01H4.84Z"/>
    <path class="st0" d="M1.35,5.76V.53h29.3v30.94h-2.5c1.3-.42,2.2-1.41,2.39-2.78V6.14c-.08-1.15-1.07-2.4-2.17-2.72-.25-.07-.83-.22-.98,0v3.49c0,.09-.41.9-.5,1.03-1.3,1.86-4.07,1.68-5.1-.33-.11-.21-.39-.94-.39-1.13v-3.21h-9.58v3c0,1.48-1.51,2.98-3,3s-3.1-1.44-3.1-2.89v-3.1c-2.03-.22-3.7.49-4.36,2.51ZM8.29.67c-.56.12-1.16.8-1.25,1.36-.14.82-.12,3.47-.03,4.33.23,1.99,3.08,2.05,3.46.19.14-.69.11-3.57.02-4.33-.12-1.09-1.14-1.78-2.21-1.55ZM23.97.67c-.56.12-1.16.8-1.25,1.36-.14.82-.12,3.47-.03,4.33.22,1.95,3.02,2.11,3.44.17.15-.7.14-3.55.05-4.31-.13-1.09-1.14-1.77-2.21-1.55Z"/>
    <path class="st0" d="M4.84,10.01h22.22v17.86H4.84V10.01ZM9.96,11.75h-3.48v3.59h3.48v-3.59ZM15.07,11.75h-3.48v3.59h3.48v-3.59ZM16.82,11.75v3.59h3.48v-3.59h-3.48ZM21.94,11.75v3.59h3.48v-3.59h-3.48ZM9.96,17.09h-3.48v3.54l.16.16h3.32v-3.7ZM15.07,17.09h-3.32l-.16.16v3.38l.16.16h3.32v-3.7ZM16.82,20.79h3.32l.16-.16v-3.38l-.16-.16h-3.32v3.7ZM25.42,17.09h-3.48v3.7h3.32l.16-.16v-3.54ZM9.96,22.54h-3.48v3.59h3.48v-3.59ZM15.07,22.54h-3.48v3.43l.16.16h3.32v-3.59ZM20.3,22.54h-3.48v3.59h3.32l.16-.16v-3.43Z"/>
    <path class="st2" d="M8.29.67c1.07-.22,2.08.46,2.21,1.55.09.76.11,3.65-.02,4.33-.38,1.86-3.23,1.8-3.46-.19-.1-.86-.11-3.51.03-4.33.09-.56.7-1.25,1.25-1.36Z"/>
    <path class="st2" d="M23.97.67c1.07-.22,2.08.46,2.21,1.55.09.76.1,3.61-.05,4.31-.41,1.95-3.21,1.78-3.44-.17-.1-.86-.11-3.51.03-4.33.09-.56.7-1.25,1.25-1.36Z"/>
    <polygon class="st4" points="9.96 17.09 9.96 20.79 6.63 20.79 6.47 20.63 6.47 17.09 9.96 17.09"/>
    <polygon class="st4" points="25.42 17.09 25.42 20.63 25.26 20.79 21.94 20.79 21.94 17.09 25.42 17.09"/>
    <polygon class="st4" points="15.07 17.09 15.07 20.79 11.75 20.79 11.59 20.63 11.59 17.25 11.75 17.09 15.07 17.09"/>
    <polygon class="st4" points="16.82 20.79 16.82 17.09 20.14 17.09 20.3 17.25 20.3 20.63 20.14 20.79 16.82 20.79"/>
    <rect class="st4" x="6.47" y="11.75" width="3.48" height="3.59"/>
    <rect class="st4" x="11.59" y="11.75" width="3.48" height="3.59"/>
    <rect class="st4" x="16.82" y="11.75" width="3.48" height="3.59"/>
    <rect class="st4" x="21.94" y="11.75" width="3.48" height="3.59"/>
    <rect class="st4" x="6.47" y="22.54" width="3.48" height="3.59"/>
    <polygon class="st4" points="15.07 22.54 15.07 26.13 11.75 26.13 11.59 25.97 11.59 22.54 15.07 22.54"/>
    <polygon class="st4" points="20.3 22.54 20.3 25.97 20.14 26.13 16.82 26.13 16.82 22.54 20.3 22.54"/>
  </g>
</svg>