<?xml version="1.0" encoding="UTF-8"?>
<svg id="Layer_1" xmlns="http://www.w3.org/2000/svg" version="1.1" viewBox="0 0 32 32">
  <!-- Generator: Adobe Illustrator 30.0.0, SVG Export Plug-In . SVG Version: 2.1.1 Build 123)  -->
  <defs>
    <style>
      .st0 {
        fill: #fff;
      }
    </style>
  </defs>
  <g id="I53A0D.tif">
    <g>
      <path class="st0" d="M31.16,13.24v4.33H.84v-4.33h30.33ZM1.31,16c.27.09,2.08,0,2.56,0,.13,0,.59,1.31,1.74,1.45,2.15.26,1.65-.85,2.42-1.33.24-.15,5.2-.22,5.67-.12.72.16.5,1.35,2.15,1.45,1.98.11,1.76-1.23,2.32-1.43.4-.14,5.56-.04,5.8.14.11.08.16.44.37.63.68.61,1.2.79,2.17.65,1.05-.14,1.4-1.45,1.61-1.45h2.49s.14-.49.12-.57c-.19-.65-2.23-.19-2.72-.35-.14-.04-.69-1.5-2.07-1.53s-1.86,1.48-2.03,1.53c-.28.09-5.6.09-5.88,0-.17-.05-.58-1.58-2.05-1.58-1.56,0-1.77,1.54-1.9,1.59-.28.1-5.53.08-5.92,0-.33-.07-.82-1.64-2.28-1.59s-1.79,1.55-1.91,1.59c-.52.16-3-.42-2.89.58.01.12.1.29.21.33Z"/>
      <path d="M1.31,16c-.11-.04-.2-.21-.21-.33-.12-1,2.37-.42,2.89-.58.12-.04.52-1.54,1.91-1.59,1.46-.05,1.95,1.52,2.28,1.59.39.08,5.65.1,5.92,0,.12-.05.33-1.59,1.9-1.59,1.47,0,1.88,1.53,2.05,1.58.28.09,5.6.09,5.88,0,.17-.05.59-1.57,2.03-1.53s1.93,1.49,2.07,1.53c.49.15,2.54-.31,2.72.35.02.08-.09.57-.12.57h-2.49c-.22,0-.57,1.3-1.61,1.45-.96.13-1.48-.04-2.17-.65-.21-.18-.26-.55-.37-.63-.25-.19-5.41-.28-5.8-.14-.56.19-.34,1.54-2.32,1.43-1.66-.09-1.43-1.28-2.15-1.45-.46-.1-5.43-.03-5.67.12-.77.48-.27,1.59-2.42,1.33-1.15-.14-1.61-1.45-1.74-1.45-.48,0-2.3.09-2.56,0ZM7.14,15.56c0-.62-.51-1.11-1.14-1.11s-1.14.5-1.14,1.11.51,1.11,1.14,1.11,1.14-.5,1.14-1.11ZM17.16,15.55c0-.62-.52-1.13-1.16-1.13s-1.16.5-1.16,1.13.52,1.13,1.16,1.13,1.16-.5,1.16-1.13ZM27.02,15.59c0-.58-.48-1.05-1.08-1.05s-1.08.47-1.08,1.05.48,1.05,1.08,1.05,1.08-.47,1.08-1.05Z"/>
      <ellipse class="st0" cx="16" cy="15.55" rx="1.16" ry="1.13"/>
      <ellipse class="st0" cx="6" cy="15.56" rx="1.14" ry="1.11"/>
      <ellipse class="st0" cx="25.94" cy="15.59" rx="1.08" ry="1.05"/>
    </g>
  </g>
</svg>