<?xml version="1.0" encoding="UTF-8"?>
<svg id="Layer_1" xmlns="http://www.w3.org/2000/svg" version="1.1" viewBox="0 0 32 32">
  <!-- Generator: Adobe Illustrator 30.0.0, SVG Export Plug-In . SVG Version: 2.1.1 Build 123)  -->
  <defs>
    <style>
      .st0 {
        fill: #fff;
      }

      .st1 {
        fill: #151515;
      }

      .st2 {
        fill: #fefefe;
      }

      .st3 {
        fill: #818181;
      }
    </style>
  </defs>
  <g id="uZyTgq.tif">
    <g>
      <path class="st0" d="M5.41,17.88H.71v-4.45h31.13v4.45h-4.84c.28-.2.54-.23.83-.47.27-.22.76-1.15.9-1.15h2.56s.15-.5.13-.59c-.19-.69-2.56-.15-2.88-.38-.04-.03-.12-.37-.23-.51-1.25-1.61-3.15-1.27-3.89.54h-6.05c-.49-1.4-2.12-2.13-3.4-1.15-.36.27-.59,1.06-.78,1.12h-6.12c-.83-2.07-3.34-2.13-4.11.02-.7.09-2.18-.21-2.74.14-.38.24-.21.8-.01.8h2.35c.49,0,.71.7,1.03,1.02.28.27.56.36.83.6Z"/>
      <path class="st1" d="M5.41,17.88c-.27-.24-.56-.33-.83-.6-.32-.31-.54-1.02-1.03-1.02H1.19c-.2,0-.37-.56.01-.8.56-.35,2.04-.05,2.74-.14.77-2.16,3.28-2.1,4.11-.03h6.12c.19-.06.42-.85.78-1.12,1.29-.99,2.92-.25,3.4,1.15h6.05c.74-1.8,2.64-2.15,3.89-.54.11.15.19.49.23.51.32.22,2.68-.32,2.88.38.02.08-.1.59-.13.59h-2.56c-.13,0-.62.93-.9,1.15-.29.24-.56.26-.83.47h-1.11c-.36-.28-.73-.44-1.04-.81-.16-.19-.34-.64-.44-.68-.2-.07-.7-.13-.93-.14-.61-.04-4.84-.06-5.06.07-.15.09-.22.44-.35.6-.38.48-.76.69-1.31.95h-1.11c-.2-.35-.62-.37-.91-.67-.25-.27-.38-.83-.71-.93-1.74.06-3.66-.16-5.38-.03-.93.07-.69.66-1.3,1.16-.29.24-.56.26-.83.47h-1.11ZM7.2,15.81c0-.65-.54-1.17-1.2-1.17s-1.2.52-1.2,1.17.54,1.17,1.2,1.17,1.2-.52,1.2-1.17ZM17.48,15.8c0-.65-.54-1.19-1.22-1.19s-1.22.53-1.22,1.19.54,1.19,1.22,1.19,1.22-.53,1.22-1.19ZM27.65,15.82c0-.63-.52-1.14-1.17-1.14s-1.17.51-1.17,1.14.52,1.14,1.17,1.14,1.17-.51,1.17-1.14Z"/>
      <path class="st2" d="M15.65,17.88H6.52c.28-.2.54-.23.83-.47.61-.49.38-1.09,1.3-1.16,1.72-.13,3.64.09,5.38.03.33.1.46.66.71.93.29.3.7.32.91.67Z"/>
      <path class="st2" d="M16.75,17.88c.55-.26.92-.47,1.31-.95.13-.16.2-.52.35-.6.22-.13,4.45-.11,5.06-.07.23.01.74.07.93.14.11.04.28.49.44.68.31.37.68.53,1.04.81h-9.13Z"/>
      <ellipse class="st3" cx="16.27" cy="15.8" rx="1.22" ry="1.19"/>
      <ellipse class="st3" cx="6" cy="15.81" rx="1.2" ry="1.17"/>
      <ellipse class="st3" cx="26.48" cy="15.82" rx="1.17" ry="1.14"/>
    </g>
  </g>
</svg>