<?xml version="1.0" encoding="UTF-8"?>
<svg id="Layer_1" xmlns="http://www.w3.org/2000/svg" version="1.1" viewBox="0 0 32 13">
  <!-- Generator: Adobe Illustrator 30.0.0, SVG Export Plug-In . SVG Version: 2.1.1 Build 123)  -->
  <defs>
    <style>
      .st0 {
        fill: #faf9f9;
      }

      .st1 {
        fill: #393838;
      }

      .st2 {
        fill: #deb865;
        stroke: #deb865;
        stroke-miterlimit: 10;
        stroke-width: .25px;
      }
    </style>
  </defs>
  <g>
    <g>
      <path class="st1" d="M6.96,11.14h3.08s0,.67,0,.67h-3.08c.05-.22.05-.45,0-.67Z"/>
      <path class="st1" d="M14.64,11.14c-.04.22-.03.45.03.67h-2.31s0-.67,0-.67h2.28Z"/>
      <path class="st1" d="M4.27,11.14c-.06.22-.06.45,0,.67h-1.13s0-.67,0-.67h1.13Z"/>
      <rect class="st1" x="2.1" y="11.14" width=".79" height=".67"/>
      <rect class="st1" x="11.32" y="11.14" width=".67" height=".67"/>
      <rect class="st1" x="10.3" y="11.14" width=".67" height=".67"/>
      <rect class="st1" x="1.05" y="11.14" width=".67" height=".67"/>
      <g>
        <rect class="st1" x="17.76" y="11.14" width="3.15" height=".67"/>
        <path class="st1" d="M24.36,11.14c-.06.28-.05.44.04.71l-2.89-.04v-.67h2.85Z"/>
        <path class="st1" d="M27.13,11.21c-.02-.11.06-.07.13-.07.7-.03,1.41.02,2.12,0v.67c-.73.04-1.52-.05-2.25,0-.03-.16.04-.46,0-.6Z"/>
        <rect class="st1" x="29.57" y="11.14" width=".82" height=".67"/>
        <rect class="st1" x="30.62" y="11.14" width=".6" height=".67"/>
      </g>
    </g>
    <g>
      <path class="st1" d="M19.3,1.48v7.3l-3.05.04c-.13.04-.01.47-.08.48h-.47c-.03-.12.08-.51-.09-.53l-3.28.04V1.57s.05-.06.04-.09h6.93ZM18.92,7.13h-5.9s-.07-.06-.07-.08l-.02-5.15c0-.11-.05-.15-.15-.13v6.62h6.15v-1.27ZM19,1.81h-5.7v4.92s.39.03.41.01c0,0,.04-.19.07-.25.2-.43.55-.64.83-.97.05-.05.23-.29.25-.34.2-.4,0-1.01.04-1.45.07-.85.99-1.46,1.61-.67.5.63.09,1.4.37,2.1.2.49.54.63.83,1,.12.15.22.49.35.54.2.09.69.03.92,0V1.81ZM15.8,3.02c-.66.07-.78,1.4-.19,1.75.51.3.88-.41.88-.84,0-.34-.27-.96-.69-.91ZM16.49,4.88c-.22.07-.33.23-.26.46.03.08.35.09.44.14.02-.02-.24-.49-.19-.6ZM15.54,5.07l-.29-.16c.03.2-.11.35-.15.52.02.02.43-.06.44-.08.01-.02.01-.26,0-.29ZM17.65,6.75c-.36-1.1-1.94-1.31-2.87-.83-.23.12-.65.49-.72.74-.02.08.02.04.06.05.03,0,.14.04.15.04h3.39Z"/>
      <rect class="st1" x="15.7" y="9.56" width=".49" height=".67"/>
      <path class="st1" d="M15.7,10.05v.44s.49,0,.49,0v-.46c-.16-.02-.33-.02-.49.02Z"/>
      <g>
        <path class="st0" d="M16.49,4.88c-.05.1.21.58.19.6"/>
        <path class="st0" d="M15.55,5.36s-.43.1-.44.08c.04-.18.18-.33.15-.52"/>
      </g>
    </g>
    <g>
      <path class="st1" d="M29.23,1.48v7.37h-3.24c-.09,0-.05.37-.06.45h-.47c-.05,0,0-.32-.03-.39-.03-.1-.53-.07-.65-.06-.71.02-1.7.12-2.4.04-.04,0-.13-.02-.13-.06V1.68s.15-.21.17-.21h6.8ZM22.93,1.92c-.05,0-.22,0-.22.06v6.53h6.15v-1.23h-5.92V1.92ZM28.85,1.92h-5.53s-.06.05-.06.06v4.92c.08-.02.32.03.37,0,.03-.02.14-.45.2-.57.88-1.66,3.81-1.35,4.16.57.28,0,.58.04.86-.03V1.92ZM27.66,6.86c-.44-1.72-3.2-1.73-3.67-.02,0,.04.17.06.21.06.91.06,2.28.06,3.19,0,.1,0,.18-.04.28-.04Z"/>
      <rect class="st1" x="25.44" y="9.56" width=".49" height=".67"/>
      <path class="st1" d="M25.44,10.09l.02.4h.47s0-.4,0-.4c-.13-.01-.36-.01-.49,0Z"/>
      <path class="st1" d="M25.58,2.38c1.51-.26,1.67,2.61.33,2.79-1.48.2-1.62-2.57-.33-2.79ZM25.7,2.68c-.82.11-.93,1.75-.19,2.12.62.31,1.03-.5,1.03-1.02,0-.42-.31-1.17-.84-1.1Z"/>
    </g>
    <g>
      <path class="st1" d="M9.14,1.44v7.37h-3.24c-.09,0-.05.4-.06.49h-.47c-.05,0,0-.35-.03-.43-.03-.1-.5-.07-.61-.06-.71.02-1.7.12-2.4.04-.04,0-.13-.02-.13-.06V1.57s.12-.13.13-.13h6.8ZM2.85,1.89c-.05,0-.22,0-.22.06v6.53h6.15v-1.23H2.85V1.89ZM8.77,1.89H3.18v4.98c.08-.02.32.03.37,0,.03-.02.14-.45.2-.57.88-1.66,3.81-1.35,4.16.57.28,0,.58.04.86-.03V1.89ZM7.57,6.83c-.44-1.72-3.2-1.73-3.67-.02,0,.04.17.06.21.06.91.06,2.28.06,3.19,0,.1,0,.18-.04.28-.04Z"/>
      <rect class="st1" x="5.36" y="9.56" width=".49" height=".67"/>
      <path class="st1" d="M5.35,10.12v.37s.49,0,.49,0v-.38c-.16-.03-.33-.02-.49,0Z"/>
      <path class="st1" d="M5.5,2.35c1.52-.26,1.66,2.61.33,2.79-1.48.2-1.62-2.57-.33-2.79ZM5.61,2.64c-.82.11-.93,1.75-.19,2.12.62.31,1.03-.5,1.03-1.02,0-.42-.31-1.17-.84-1.1Z"/>
    </g>
  </g>
  <path class="st2" d="M27.16,10.51l.1.09c.03.41.04,1.23,0,1.67-.01.14-.02.15-.15.17-.86-.06-1.81.08-2.66,0-.13-.01-.14-.02-.15-.17-.03-.44-.03-1.26,0-1.67l.11-.09h2.74ZM24.48,10.79v1.32s.04.08.08.08h2.43s.08-.04.08-.08v-1.32s-.04-.08-.08-.08h-2.43s-.08.04-.08.08Z"/>
  <path class="st2" d="M6.97,10.53l.1.09c.03.41.04,1.23,0,1.67-.01.14-.02.15-.15.17-.86-.06-1.81.08-2.66,0-.13-.01-.14-.02-.15-.17-.03-.44-.03-1.26,0-1.67l.11-.09h2.74ZM4.3,10.81v1.32s.04.08.08.08h2.43s.08-.04.08-.08v-1.32s-.04-.08-.08-.08h-2.43s-.08.04-.08.08Z"/>
  <path class="st2" d="M17.32,10.53l.1.09c.03.41.04,1.23,0,1.67-.01.14-.02.15-.15.17-.86-.06-1.81.08-2.66,0-.13-.01-.14-.02-.15-.17-.03-.44-.03-1.26,0-1.67l.11-.09h2.74ZM14.65,10.81v1.32s.04.08.08.08h2.43s.08-.04.08-.08v-1.32s-.04-.08-.08-.08h-2.43s-.08.04-.08.08Z"/>
</svg>