<?xml version="1.0" encoding="UTF-8"?>
<svg id="Layer_1" xmlns="http://www.w3.org/2000/svg" version="1.1" viewBox="0 0 80 80">
  <!-- Generator: Adobe Illustrator 30.0.0, SVG Export Plug-In . SVG Version: 2.1.1 Build 123)  -->
  <defs>
    <style>
      .st0 {
        fill: #cba46a;
        stroke: #cba46a;
        stroke-width: .75px;
      }

      .st0, .st1 {
        stroke-miterlimit: 10;
      }

      .st1 {
        stroke: #203954;
        stroke-width: 1.5px;
      }

      .st1, .st2 {
        fill: #203954;
      }
    </style>
  </defs>
  <path class="st1" d="M15.68,64.67c1.13-.83,2.22-1.7,3.31-2.58,2.42-1.95,4.78-4.03,7.26-5.92.24-.19.57-.48.87-.53l19.16-.02c1.5.29,1.45,2.18-.06,2.34h-18.56c-3.74,2.87-7.32,5.95-11.01,8.88-.39.31-1.35,1.14-1.73,1.31-.5.23-.95.09-1.27-.34-.04-.06-.24-.37-.24-.39v-9.47c0-.1-1.84.01-2.06,0-4.62-.3-8.5-4.1-9.15-8.62-.19-8.45-.04-16.93-.08-25.39.41-4.62,4.15-8.44,8.76-8.94h58.26c4.61.55,8.34,4.29,8.77,8.93v24.87c-.61,5.89-5.82,9.79-11.66,9.15-1.53-.17-1.47-2.15-.07-2.34.93-.12,2.04.1,3-.04,3.22-.47,5.89-3.21,6.38-6.41.14-8.5.14-17.05,0-25.55-.66-3.44-3.56-6-7.05-6.29H11.66c-3.72.26-6.69,2.98-7.2,6.67-.14,8.3-.14,16.63,0,24.93.47,3.17,2.67,5.75,5.82,6.49,1.51.35,3.08.08,4.62.21.25.03.78.57.78.79v8.23h0Z"/>
  <rect class="st0" x="55.01" y="51.59" width="2.7" height="10.33" rx="1.1" ry="1.1"/>
  <rect class="st0" x="50.21" y="53.92" width="2.7" height="5.66" rx="1.1" ry="1.1"/>
  <rect class="st0" x="59.81" y="53.92" width="2.7" height="5.66" rx="1.1" ry="1.1"/>
  <g>
    <path class="st2" d="M46.64,24.59c-.06.26-.02,1.27-.13,1.38-.9.41-2.63-.11-2.56,1.34.03.72.44,1.85.66,2.58,1.23,4.25,2.69,8.45,3.92,12.71.17.38.3-.02.39-.22l4.37-12.31c-.3-.84-.51-1.8-.85-2.62-.56-1.35-1.83-1.03-3.02-1.45l-.08-1.4h10.36l-.08,1.4c-.6.23-2.04.09-2.41.65s.13,2.01.3,2.66c1.17,4.25,2.55,8.77,3.92,12.97.09.27.17.8.45.28,1.08-4.24,2.89-8.52,3.77-12.78.22-1.08.68-2.77-.59-3.32-.4-.17-1.77-.34-1.91-.44-.15-.12-.16-1.17-.16-1.42h8.65s.11.1.09.15l-.15,1.26c-.67.3-1.4.37-1.99.84-1.32,1.06-2.59,5.48-3.16,7.2-1.48,4.43-2.81,8.9-4.31,13.32-.05.1-.13.1-.23.11-.81.09-1.8-.08-2.63,0l-4.88-14.9-.17-.05-5.22,14.83c-.05.1-.13.1-.23.11-.85.1-1.91-.07-2.79-.01l-6.83-20.26c-.17-.33-.42-.58-.77-.71-.4-.14-1.95-.34-2.11-.45-.18-.13-.12-1.18-.2-1.45h10.56,0Z"/>
    <path class="st2" d="M19.72,24.59s-.06,1.34-.13,1.38c-.65.14-1.37.12-2,.29-.15.04-.63.2-.63.38v8.31h10.5v-8.38c0-.17-.57-.32-.72-.35-.59-.12-1.29-.14-1.9-.22l-.12-1.26c-.02-.05.06-.15.09-.15h9.59l-.07,1.41c-.64.06-1.37.1-1.99.26-.24.06-.64.15-.7.45v18.51c-.01.1,0,.18.06.27.28.39,2.12.41,2.62.57l.14,1.34h-9.76l.15-1.34c.1-.15,2.61-.15,2.61-.65v-8.85h-10.5v8.85c0,.17.4.3.54.34.31.08,2.08.23,2.15.31l.08,1.34h-9.69l.08-1.34c.66-.15,1.36-.14,2.01-.31.25-.07.65-.17.67-.47v-18.51c.02-.1,0-.18-.05-.27-.22-.3-2.18-.45-2.63-.5l-.07-1.41h9.69,0Z"/>
  </g>
</svg>