<?xml version="1.0" encoding="UTF-8"?>
<svg id="Layer_1" xmlns="http://www.w3.org/2000/svg" version="1.1" viewBox="0 0 240 160">
  <!-- Generator: Adobe Illustrator 30.0.0, SVG Export Plug-In . SVG Version: 2.1.1 Build 123)  -->
  <defs>
    <style>
      .st0 {
        fill: #cba46a;
      }

      .st1 {
        fill: #203954;
      }
    </style>
  </defs>
  <g>
    <path class="st1" d="M50.98,145.36c3.2-2.35,6.31-4.82,9.39-7.31,6.88-5.53,13.57-11.45,20.59-16.8.69-.53,1.63-1.35,2.47-1.51l64.35-.06c4.27.82,4.06,6.18-.22,6.65l-62.59.04c-10.61,8.12-20.76,16.86-31.25,25.18-1.1.88-3.84,3.24-4.9,3.73-1.43.65-2.71.25-3.61-.96-.12-.16-.67-1.04-.67-1.1v-26.88c0-.29-5.22.04-5.86,0-13.1-.86-24.12-11.63-25.98-24.47-.55-23.98-.12-48.06-.22-72.06,1.16-13.1,11.78-23.96,24.86-25.37h165.33c13.08,1.57,23.67,12.18,24.9,25.33v70.59c-1.73,16.71-16.53,27.78-33.1,25.98-4.35-.47-4.16-6.1-.2-6.63,2.65-.35,5.78.27,8.51-.12,9.14-1.33,16.72-9.1,18.12-18.18.41-24.12.39-48.39,0-72.51-1.88-9.76-10.1-17.02-20-17.84H39.57c-10.55.75-18.98,8.45-20.43,18.94-.41,23.55-.41,47.19,0,70.74,1.33,9,7.59,16.33,16.53,18.43,4.29,1,8.74.22,13.12.61.71.08,2.2,1.61,2.2,2.24v23.35Z"/>
    <g>
      <path class="st1" d="M170.41,109.36c1.82-.41,3.57.61,3.84,2.49v22.33c-.92,3.37-5.61,3.02-5.98-.43.55-6.9-.73-14.92,0-21.69.12-1.14.98-2.45,2.16-2.73l-.02.02Z"/>
      <path class="st1" d="M158.68,115.34c1.73-.35,3.63.65,3.82,2.49.39,3.39-.25,7.55-.06,11.02-.88,3.33-5.55,3.2-5.92-.39-.35-3.37.25-7.37,0-10.82.16-1,1.16-2.08,2.14-2.29h.02Z"/>
      <path class="st1" d="M182.15,115.32c1.96-.45,3.61.73,3.82,2.73.24,2.14.27,8.78-.06,10.78-.55,3.27-5.37,2.94-5.71.27-.37-2.98.02-7.47.02-10.65,0-.37-.2-.78-.18-1.08.08-.71,1.39-1.92,2.1-2.08v.02Z"/>
    </g>
  </g>
  <rect class="st0" x="167.6" y="108.25" width="7.65" height="29.33" rx="1.95" ry="1.95"/>
  <rect class="st0" x="155.7" y="115.19" width="7.65" height="16.06" rx="1.95" ry="1.95"/>
  <rect class="st0" x="179.27" y="115.23" width="7.65" height="16.06" rx="1.95" ry="1.95"/>
  <g>
    <path class="st1" d="M138.53,30.52c-.17.75-.05,3.71-.39,4.05-2.63,1.21-7.69-.33-7.49,3.93.1,2.12,1.3,5.41,1.92,7.55,3.61,12.46,7.89,24.74,11.47,37.21.49,1.12.89-.05,1.15-.65l12.8-36.05c-.89-2.46-1.5-5.26-2.5-7.66-1.64-3.95-5.36-3.03-8.85-4.26l-.22-4.11h30.35l-.22,4.11c-1.76.66-5.98.26-7.07,1.9s.37,5.88.89,7.79c3.43,12.46,7.47,25.69,11.48,37.99.26.8.51,2.33,1.33.83,3.15-12.42,8.45-24.94,11.04-37.44.65-3.15,1.98-8.12-1.72-9.72-1.17-.5-5.19-.99-5.59-1.3-.44-.34-.46-3.43-.47-4.16h25.33c.07,0,.33.29.26.44l-.45,3.7c-1.97.89-4.09,1.08-5.82,2.46-3.86,3.09-7.58,16.06-9.26,21.09-4.34,12.96-8.24,26.07-12.63,39.01-.14.3-.38.29-.66.32-2.38.27-5.27-.24-7.71,0l-14.28-43.63-.5-.14-15.29,43.44c-.14.3-.38.29-.66.32-2.5.29-5.59-.21-8.16-.04l-19.99-59.34c-.51-.96-1.23-1.7-2.26-2.08-1.16-.42-5.72-1-6.17-1.32-.52-.37-.36-3.46-.58-4.24h30.94Z"/>
    <path class="st1" d="M59.69,30.52c.14.14-.19,3.92-.38,4.05-1.89.42-4,.35-5.86.84-.45.12-1.84.6-1.84,1.11v24.34h30.75v-24.54c0-.5-1.68-.94-2.12-1.03-1.74-.35-3.78-.4-5.56-.64l-.36-3.69c-.07-.16.19-.44.26-.44h28.09l-.2,4.14c-1.88.18-4.02.28-5.84.76-.7.18-1.88.45-2.04,1.31l-.02,54.21c-.02.3.01.54.19.79.83,1.15,6.21,1.19,7.68,1.68l.42,3.92h-28.58l.43-3.91c.29-.45,7.65-.45,7.65-1.91v-25.92h-30.75v25.92c0,.49,1.16.89,1.57.99.91.24,6.09.66,6.29.9l.22,3.92h-28.38l.22-3.92c1.93-.45,3.97-.4,5.89-.91.74-.2,1.91-.49,1.96-1.39l.03-54.2c.02-.3-.01-.54-.19-.79-.63-.88-6.38-1.32-7.7-1.46l-.2-4.14h28.38Z"/>
  </g>
</svg>