<?xml version="1.0" encoding="UTF-8"?>
<svg id="Layer_1" xmlns="http://www.w3.org/2000/svg" version="1.1" viewBox="0 0 240 160">
  <!-- Generator: Adobe Illustrator 30.0.0, SVG Export Plug-In . SVG Version: 2.1.1 Build 123)  -->
  <defs>
    <style>
      .st0 {
        fill: #203954;
      }
    </style>
  </defs>
  <g>
    <path class="st0" d="M50.98,145.36c3.2-2.35,6.31-4.82,9.39-7.31,6.88-5.53,13.57-11.45,20.59-16.8.69-.53,1.63-1.35,2.47-1.51l64.35-.06c4.27.82,4.06,6.18-.22,6.65l-62.59.04c-10.61,8.12-20.76,16.86-31.25,25.18-1.1.88-3.84,3.24-4.9,3.73-1.43.65-2.71.25-3.61-.96-.12-.16-.67-1.04-.67-1.1v-26.88c0-.29-5.22.04-5.86,0-13.1-.86-24.12-11.63-25.98-24.47-.55-23.98-.12-48.06-.22-72.06,1.16-13.1,11.78-23.96,24.86-25.37h165.33c13.08,1.57,23.67,12.18,24.9,25.33v70.59c-1.73,16.71-16.53,27.78-33.1,25.98-4.35-.47-4.16-6.1-.2-6.63,2.65-.35,5.78.27,8.51-.12,9.14-1.33,16.72-9.1,18.12-18.18.41-24.12.39-48.39,0-72.51-1.88-9.76-10.1-17.02-20-17.84H39.57c-10.55.75-18.98,8.45-20.43,18.94-.41,23.55-.41,47.19,0,70.74,1.33,9,7.59,16.33,16.53,18.43,4.29,1,8.74.22,13.12.61.71.08,2.2,1.61,2.2,2.24v23.35Z"/>
    <g>
      <path class="st0" d="M170.41,109.36c1.82-.41,3.57.61,3.84,2.49v22.33c-.92,3.37-5.61,3.02-5.98-.43.55-6.9-.73-14.92,0-21.69.12-1.14.98-2.45,2.16-2.73l-.02.02Z"/>
      <path class="st0" d="M158.68,115.34c1.73-.35,3.63.65,3.82,2.49.39,3.39-.25,7.55-.06,11.02-.88,3.33-5.55,3.2-5.92-.39-.35-3.37.25-7.37,0-10.82.16-1,1.16-2.08,2.14-2.29h.02Z"/>
      <path class="st0" d="M182.15,115.32c1.96-.45,3.61.73,3.82,2.73.24,2.14.27,8.78-.06,10.78-.55,3.27-5.37,2.94-5.71.27-.37-2.98.02-7.47.02-10.65,0-.37-.2-.78-.18-1.08.08-.71,1.39-1.92,2.1-2.08v.02Z"/>
    </g>
    <g>
      <path class="st0" d="M77.31,79.01c1.78-1.27,3.82-3.22,6.1-3.53,11.84-1.55,7.41,11.51,8.33,18.63.33,1.51,2.61,1.41,2.96,1.92.25.37.04,1.29.1,1.78h-10.73c-.45,0-.76-1.31-.45-1.78.27-.41,2.73-.57,2.76-1.65-.25-3.76.35-8,0-11.73-.31-3.22-3.2-3.73-5.94-3.06-.71.18-3.02,1.27-3.14,1.94l.06,12.78c.33,1.53,2.78,1.27,3.06,1.49.08.06-.06,1.65,0,2h-11.51c.1-.43-.14-1.73.02-1.96.2-.29,2.84-.35,2.84-1.47v-24.53c-.08-.35-2.92-.96-3.27-1.29-.43-.41-.47-1.94.33-2.1l7.04-1.16c.53-.22,1.43.25,1.43.78v12.94-.02Z"/>
      <path class="st0" d="M151.64,93.46c-2.84,4.29-9.14,5.69-13.9,4.35v6.53c0,.12.75.71.94.82,1.49.8,2.8.04,2.37,2.61h-11.39c-.51-.16-.24-1.78-.08-1.96.35-.41,2.53-.06,2.82-1.92-.35-7.53.51-15.55.02-23-.02-.37-.1-1.22-.37-1.45-.51-.43-3.16-.84-3.37-1.12-.08-.12-.06-1.65,0-1.73.27-.33,7.47-1.02,8.49-1.33.61.12.1,1.33.1,1.86,0,.45.16,1.04.35,1.43,5.84-6.47,15.29-2.94,16.04,5.65.18,2.04-.08,5.74-1.04,7.57M137.78,80.38c.2,4-.41,8.51-.06,12.47.25,3,4.29,3.29,6.49,2.25,4.37-2.08,4.78-10.57,2.25-14.08-2.02-2.84-6.08-2.37-8.69-.63v-.02Z"/>
      <path class="st0" d="M41.68,75.91s.02,1.67-.02,1.75c-.22.29-2.43.41-2.37,1.2l4.73,13.43,4.33-12.06c.08-2.1-2.16-1.96-2.57-2.53-.25-.37-.04-1.29-.1-1.78h9.74c-.08.39.12,1.8-.02,1.98-.16.18-2.24.18-1.98,1.22l4.43,12.74c.37-.1.49-.51.61-.82,1.61-3.8,2.51-8.25,4.02-12.12-.84-1.67-3.45-.06-2.86-2.98h8.41c-.1.43.14,1.73-.02,1.96-.22.31-1.84.18-2.78,1.98-1.9,5.02-3.47,10.18-5.37,15.22-.18.47-.86,2.51-1.1,2.65-.25.16-3.59.18-3.74.08l-5.24-13.9c-1.71,4.24-3.1,8.65-4.8,12.88-.08.2-.37.98-.43,1.02-.22.14-3.61.12-3.84-.18l-6.63-17.49c-.2-.39-.8-1.25-1.14-1.51-.39-.29-1.76-.65-1.82-.73-.18-.25.06-1.53-.02-1.96,1.29.29,10.25-.37,10.63,0l-.04-.04Z"/>
      <path class="st0" d="M176.44,86.76h-14.16c-.02,2.37.49,4.98,2.43,6.53,2.16,1.73,5.51,1.55,7.9.37.96-.47,2.14-2,3.08-1.37,1.29.84.92,1.31.1,2.33-2.69,3.33-6.94,3.76-10.96,3.45-11.53-.92-11.63-22.04,1.76-22.8,7.43-.43,10.98,4.39,9.86,11.51l-.02-.02ZM162.84,84.31h8.2c.88,0,.08-3.82-.29-4.57-1.57-3.16-6.04-2.8-7.53.29-.33.71-1.22,4.02-.37,4.27Z"/>
      <path class="st0" d="M126.21,81.42s-1.82.29-1.96.22c-.14-.1-.75-2.24-1.57-2.98-2.49-2.27-8.59-.75-6.92,3.16.78,1.82,5.98,2.82,7.8,3.71,1.61.78,3.49,2.35,3.73,4.24.98,7.35-6.22,8.96-12.04,8.49-.53-.04-3.88-.71-4.06-.92-.16-.22-.67-4.14-.71-4.71-.02-.39-.12-1.08.22-1.33.24-.18,1.53-.41,1.78-.24.14.1.86,2.27,1.31,2.88,2.8,3.74,10.55,1.67,8.69-2.71-.71-1.69-6.14-2.76-8-3.73-3.18-1.65-3.73-3.57-3.35-7.06.35-3.24,4.06-4.98,6.96-5.2,1.25-.1,7.12.14,7.74,1.12.35.55.51,4.88.33,5.08l.04-.02Z"/>
      <path class="st0" d="M187.52,75.46v4.65c.53.14.37-.12.51-.27,1.14-1.31,1.84-2.71,3.41-3.67,1.16-.71,2.98-1.02,4.29-.61,2.08.65,1.63,5.14-.61,5.61-2.12.43-2.94-1.35-4.1-1.24s-3,1.92-3.22,3v10.96c0,1.51,3.67,1.65,3.92,1.94.14.16-.06,1.57.02,1.98h-12.39c-.78-3.14,2.61-1.51,3.04-3.92-.14-4.31.37-8.96.06-13.23-.02-.41,0-.94-.39-1.22-.53-.39-2.82-.78-2.92-.9-.08-.1-.2-2.1.33-2.16,2.71-.18,5.33-1,8.04-.92h0Z"/>
      <path class="st0" d="M97.23,97.82s-.02-1.88.02-1.96c.24-.33,2.61-.37,2.84-1.69v-14.16c.06-.18,0-.24-.14-.35-1.41-1.08-3.9-.12-3.41-2.94.06-.39,1.94-.29,2.31-.37.43-.08.78-.31,1.18-.37.71-.12,4.94-.73,5.14-.49.49,6.27.1,12.61.24,18.9.22,1.25,2.67,1.24,2.86,1.47.14.16-.06,1.57.02,1.98-1.35-.29-10.67.39-11.06,0v-.02Z"/>
      <path class="st0" d="M101.6,65.56c4.67-.82,5.61,7.02-.06,6.37-3.22-.37-3.45-5.74.06-6.37Z"/>
    </g>
    <g>
      <path class="st0" d="M182.54,58.42c-1-.27-.33-3.08-.55-3.31-.33-.37-.41.18-.51.27-3.29,3.73-7.24,4.37-11.98,3.02-8.27-2.35-11.2-11.9-8.14-19.39,4.22-10.33,22.51-10.8,25.27.8-.16.22-4.9,1.08-5.18,1.04-.75-.08-1.02-1.1-1.47-1.59-1.88-2.06-3.9-2.78-6.74-2.55-8.51.75-9.06,13.61-1.67,16.25,3.06,1.1,9.23.25,8.84-4.1h-5.2s-.78-.73-.78-.76v-3.76s.31-.33.33-.33h11.84v14.37c-1.12-.2-3.12.25-4.1,0l.02.04Z"/>
      <path class="st0" d="M94.9,58.66c-.14,0-.71-.25-.78-.37l-4.69-9.08c-.49-.41-3.92-.45-3.92.06v9.41h-5.65s-.33-.31-.33-.33v-26.43h13.39c.45,0,2.14.65,2.67.88,2.47,1.12,4.35,3.55,4.55,6.29.31,4.47-.43,7.22-4.63,9.29l5.51,9.74c.06.18-.25.55-.33.55-1.71,0-4.18.22-5.74,0l-.04-.02ZM85.51,44.05h5.86s1.04-.45,1.22-.57c2.12-1.41,1.88-5.14-.65-5.96-.16-.06-1.37-.33-1.45-.33h-4.65s-.33.31-.33.33v6.53Z"/>
      <polygon class="st0" points="36.15 31.66 36.15 41.84 47 41.84 47 31.9 52.96 31.9 52.96 58.66 47 58.66 47 47.6 36.15 47.6 36.15 58.66 29.96 58.66 29.96 31.66 36.15 31.66"/>
      <path class="st0" d="M133.74,58.42l9.63-26.33c.53-.55,5.63-.22,6.88-.24l10.06,26.57h-6.31c-.43,0-1.57-5.06-2.25-5.27l-9.9-.04c-.37.69-1.55,5.31-2.02,5.31h-6.08ZM143.48,48.03h6.86l-3.43-9.73s-3.43,9.73-3.43,9.73Z"/>
      <path class="st0" d="M208.54,31.66v5.53h-10.73s-.33.31-.33.33v4.98h10.18v5.08h-10.18v5.53h11.51v5.53l-17.49-.22c-.1-6.53.14-13.06,0-19.59-.04-2-.49-4.37-.24-6.41.02-.22.1-.76.35-.76h16.92Z"/>
      <path class="st0" d="M68.21,42.52c1.88.04,3.9.16,5.78.2v4.86h-9.84s-.33.31-.33.33v4.65s.2.55.22.55h11.51v5.53h-17.49s-.24-1.27-.24-1.43c0-6.96.43-14.02.25-21.02,0-.57-.67-4.53.1-4.53h17.16v5.74h-11.51v4.98"/>
      <path class="st0" d="M127.54,37.19v21.45h-6.2v-21.45h-7.53v-5.31h21.47v4.98"/>
      <rect class="st0" x="104.53" y="31.66" width="6.2" height="26.98"/>
    </g>
  </g>
  <rect class="st0" x="167.6" y="108.25" width="7.65" height="29.33" rx="1.95" ry="1.95"/>
  <rect class="st0" x="155.7" y="115.19" width="7.65" height="16.06" rx="1.95" ry="1.95"/>
  <rect class="st0" x="179.27" y="115.23" width="7.65" height="16.06" rx="1.95" ry="1.95"/>
</svg>