<?xml version="1.0" encoding="UTF-8"?>
<svg id="Layer_1" xmlns="http://www.w3.org/2000/svg" version="1.1" viewBox="0 0 120 80">
  <!-- Generator: Adobe Illustrator 30.0.0, SVG Export Plug-In . SVG Version: 2.1.1 Build 123)  -->
  <defs>
    <style>
      .st0 {
        fill: #466fb6;
      }
    </style>
  </defs>
  <g>
    <path class="st0" d="M24.73,73.61c1.63-1.2,3.22-2.46,4.79-3.73,3.51-2.82,6.92-5.84,10.5-8.57.35-.27.83-.69,1.26-.77l32.82-.03c2.18.42,2.07,3.15-.11,3.39l-31.92.02c-5.41,4.14-10.59,8.6-15.94,12.84-.56.45-1.96,1.65-2.5,1.9-.73.33-1.38.13-1.84-.49-.06-.08-.34-.53-.34-.56v-13.71c0-.15-2.66.02-2.99,0-6.68-.44-12.3-5.93-13.25-12.48-.28-12.23-.06-24.51-.11-36.75.59-6.68,6.01-12.22,12.68-12.94h84.32c6.67.8,12.07,6.21,12.7,12.92v36c-.88,8.52-8.43,14.17-16.88,13.25-2.22-.24-2.12-3.11-.1-3.38,1.35-.18,2.95.14,4.34-.06,4.66-.68,8.53-4.64,9.24-9.27.21-12.3.2-24.68,0-36.98-.96-4.98-5.15-8.68-10.2-9.1H18.91c-5.38.38-9.68,4.31-10.42,9.66-.21,12.01-.21,24.07,0,36.08.68,4.59,3.87,8.33,8.43,9.4,2.19.51,4.46.11,6.69.31.36.04,1.12.82,1.12,1.14v11.9Z"/>
    <g>
      <path class="st0" d="M85.64,55.25c.93-.21,1.82.31,1.96,1.27v11.39c-.47,1.72-2.86,1.54-3.05-.22.28-3.52-.37-7.61,0-11.06.06-.58.5-1.25,1.1-1.39Z"/>
      <path class="st0" d="M79.66,58.3c.88-.18,1.85.33,1.95,1.27.2,1.73-.13,3.85-.03,5.62-.45,1.7-2.83,1.63-3.02-.2-.18-1.72.13-3.76,0-5.52.08-.51.59-1.06,1.09-1.17Z"/>
      <path class="st0" d="M91.63,58.29c1-.23,1.84.37,1.95,1.39.12,1.09.14,4.48-.03,5.5-.28,1.67-2.74,1.5-2.91.14-.19-1.52.01-3.81.01-5.43,0-.19-.1-.4-.09-.55.04-.36.71-.98,1.07-1.06Z"/>
    </g>
    <g>
      <path class="st0" d="M38.16,39.77c.91-.65,1.95-1.64,3.11-1.8,6.04-.79,3.78,5.87,4.25,9.5.17.77,1.33.72,1.51.98.13.19.02.66.05.91h-5.47c-.23,0-.39-.67-.23-.91.14-.21,1.39-.29,1.41-.84-.13-1.92.18-4.08,0-5.98-.16-1.64-1.63-1.9-3.03-1.56-.36.09-1.54.65-1.6.99l.03,6.52c.17.78,1.42.65,1.56.76.04.03-.03.84,0,1.02h-5.87c.05-.22-.07-.88.01-1,.1-.15,1.45-.18,1.45-.75v-12.51c-.04-.18-1.49-.49-1.67-.66-.22-.21-.24-.99.17-1.07l3.59-.59c.27-.11.73.13.73.4v6.6Z"/>
      <path class="st0" d="M76.07,47.14c-1.45,2.19-4.66,2.9-7.09,2.22v3.33c0,.06.38.36.48.42.76.41,1.43.02,1.21,1.33h-5.81c-.26-.08-.12-.91-.04-1,.18-.21,1.29-.03,1.44-.98-.18-3.84.26-7.93.01-11.73-.01-.19-.05-.62-.19-.74-.26-.22-1.61-.43-1.72-.57-.04-.06-.03-.84,0-.88.14-.17,3.81-.52,4.33-.68.31.06.05.68.05.95,0,.23.08.53.18.73,2.98-3.3,7.8-1.5,8.18,2.88.09,1.04-.04,2.93-.53,3.86M69,40.47c.1,2.04-.21,4.34-.03,6.36.13,1.53,2.19,1.68,3.31,1.15,2.23-1.06,2.44-5.39,1.15-7.18-1.03-1.45-3.1-1.21-4.43-.32Z"/>
      <path class="st0" d="M19.99,38.19s.01.85-.01.89c-.11.15-1.24.21-1.21.61l2.41,6.85,2.21-6.15c.04-1.07-1.1-1-1.31-1.29-.13-.19-.02-.66-.05-.91h4.97c-.04.2.06.92-.01,1.01-.08.09-1.14.09-1.01.62l2.26,6.5c.19-.05.25-.26.31-.42.82-1.94,1.28-4.21,2.05-6.18-.43-.85-1.76-.03-1.46-1.52h4.29c-.05.22.07.88-.01,1-.11.16-.94.09-1.42,1.01-.97,2.56-1.77,5.19-2.74,7.76-.09.24-.44,1.28-.56,1.35-.13.08-1.83.09-1.91.04l-2.67-7.09c-.87,2.16-1.58,4.41-2.45,6.57-.04.1-.19.5-.22.52-.11.07-1.84.06-1.96-.09l-3.38-8.92c-.1-.2-.41-.64-.58-.77-.2-.15-.9-.33-.93-.37-.09-.13.03-.78-.01-1,.66.15,5.23-.19,5.42,0Z"/>
      <path class="st0" d="M88.72,43.72h-7.22c-.01,1.21.25,2.54,1.24,3.33,1.1.88,2.81.79,4.03.19.49-.24,1.09-1.02,1.57-.7.66.43.47.67.05,1.19-1.37,1.7-3.54,1.92-5.59,1.76-5.88-.47-5.93-11.24.9-11.63,3.79-.22,5.6,2.24,5.03,5.87ZM81.78,42.47h4.18c.45,0,.04-1.95-.15-2.33-.8-1.61-3.08-1.43-3.84.15-.17.36-.62,2.05-.19,2.18Z"/>
      <path class="st0" d="M63.1,41s-.93.15-1,.11c-.07-.05-.38-1.14-.8-1.52-1.27-1.16-4.38-.38-3.53,1.61.4.93,3.05,1.44,3.98,1.89.82.4,1.78,1.2,1.9,2.16.5,3.75-3.17,4.57-6.14,4.33-.27-.02-1.98-.36-2.07-.47-.08-.11-.34-2.11-.36-2.4-.01-.2-.06-.55.11-.68.12-.09.78-.21.91-.12.07.05.44,1.16.67,1.47,1.43,1.91,5.38.85,4.43-1.38-.36-.86-3.13-1.41-4.08-1.9-1.62-.84-1.9-1.82-1.71-3.6.18-1.65,2.07-2.54,3.55-2.65.64-.05,3.63.07,3.95.57.18.28.26,2.49.17,2.59Z"/>
      <path class="st0" d="M94.37,37.96v2.37c.27.07.19-.06.26-.14.58-.67.94-1.38,1.74-1.87.59-.36,1.52-.52,2.19-.31,1.06.33.83,2.62-.31,2.86-1.08.22-1.5-.69-2.09-.63s-1.53.98-1.64,1.53v5.59c0,.77,1.87.84,2,.99.07.08-.03.8.01,1.01h-6.32c-.4-1.6,1.33-.77,1.55-2-.07-2.2.19-4.57.03-6.75-.01-.21,0-.48-.2-.62-.27-.2-1.44-.4-1.49-.46-.04-.05-.1-1.07.17-1.1,1.38-.09,2.72-.51,4.1-.47Z"/>
      <path class="st0" d="M48.32,49.36s-.01-.96.01-1c.12-.17,1.33-.19,1.45-.86v-7.22c.03-.09,0-.12-.07-.18-.72-.55-1.99-.06-1.74-1.5.03-.2.99-.15,1.18-.19.22-.04.4-.16.6-.19.36-.06,2.52-.37,2.62-.25.25,3.2.05,6.43.12,9.64.11.64,1.36.63,1.46.75.07.08-.03.8.01,1.01-.69-.15-5.44.2-5.64,0Z"/>
      <path class="st0" d="M50.55,32.91c2.38-.42,2.86,3.58-.03,3.25-1.64-.19-1.76-2.93.03-3.25Z"/>
    </g>
    <g>
      <path class="st0" d="M91.83,29.27c-.51-.14-.17-1.57-.28-1.69-.17-.19-.21.09-.26.14-1.68,1.9-3.69,2.23-6.11,1.54-4.22-1.2-5.71-6.07-4.15-9.89,2.15-5.27,11.48-5.51,12.89.41-.08.11-2.5.55-2.64.53-.38-.04-.52-.56-.75-.81-.96-1.05-1.99-1.42-3.44-1.3-4.34.38-4.62,6.94-.85,8.29,1.56.56,4.71.13,4.51-2.09h-2.65s-.4-.37-.4-.39v-1.92s.16-.17.17-.17h6.04v7.33c-.57-.1-1.59.13-2.09,0Z"/>
      <path class="st0" d="M47.13,29.39c-.07,0-.36-.13-.4-.19l-2.39-4.63c-.25-.21-2-.23-2,.03v4.8h-2.88s-.17-.16-.17-.17v-13.48h6.83c.23,0,1.09.33,1.36.45,1.26.57,2.22,1.81,2.32,3.21.16,2.28-.22,3.68-2.36,4.74l2.81,4.97c.03.09-.13.28-.17.28-.87,0-2.13.11-2.93,0ZM42.34,21.94h2.99s.53-.23.62-.29c1.08-.72.96-2.62-.33-3.04-.08-.03-.7-.17-.74-.17h-2.37s-.17.16-.17.17v3.33Z"/>
      <polygon class="st0" points="17.17 15.62 17.17 20.81 22.7 20.81 22.7 15.74 25.74 15.74 25.74 29.39 22.7 29.39 22.7 23.75 17.17 23.75 17.17 29.39 14.01 29.39 14.01 15.62 17.17 15.62"/>
      <path class="st0" d="M66.94,29.27l4.91-13.43c.27-.28,2.87-.11,3.51-.12l5.13,13.55h-3.22c-.22,0-.8-2.58-1.15-2.69l-5.05-.02c-.19.35-.79,2.71-1.03,2.71h-3.1ZM71.91,23.97h3.5l-1.75-4.96-1.75,4.96Z"/>
      <path class="st0" d="M105.09,15.62v2.82h-5.47s-.17.16-.17.17v2.54h5.19v2.59h-5.19v2.82h5.87v2.82l-8.92-.11c-.05-3.33.07-6.66,0-9.99-.02-1.02-.25-2.23-.12-3.27.01-.11.05-.39.18-.39h8.63Z"/>
      <path class="st0" d="M33.52,21.16c.96.02,1.99.08,2.95.1v2.48h-5.02s-.17.16-.17.17v2.37s.1.28.11.28h5.87v2.82h-8.92s-.12-.65-.12-.73c0-3.55.22-7.15.13-10.72,0-.29-.34-2.31.05-2.31h8.75v2.93h-5.87v2.54"/>
      <path class="st0" d="M63.78,18.44v10.94h-3.16v-10.94h-3.84v-2.71h10.95v2.54"/>
      <rect class="st0" x="52.04" y="15.62" width="3.16" height="13.76"/>
    </g>
  </g>
  <rect class="st0" x="84.21" y="54.68" width="3.9" height="14.96" rx="1.95" ry="1.95"/>
  <rect class="st0" x="78.14" y="58.22" width="3.9" height="8.19" rx="1.95" ry="1.95"/>
  <rect class="st0" x="90.16" y="58.24" width="3.9" height="8.19" rx="1.95" ry="1.95"/>
</svg>