<?xml version="1.0" encoding="UTF-8"?>
<svg id="Layer_1" xmlns="http://www.w3.org/2000/svg" version="1.1" viewBox="0 0 240 160">
  <!-- Generator: Adobe Illustrator 30.0.0, SVG Export Plug-In . SVG Version: 2.1.1 Build 123)  -->
  <defs>
    <style>
      .st0 {
        stroke: #203954;
        stroke-width: 4px;
      }

      .st0, .st1 {
        stroke-miterlimit: 10;
      }

      .st0, .st2 {
        fill: #203954;
      }

      .st1 {
        fill: #cba46a;
        stroke: #cba46a;
        stroke-width: 2px;
      }
    </style>
  </defs>
  <path class="st0" d="M50.98,145.36c3.2-2.35,6.31-4.82,9.39-7.31,6.88-5.53,13.57-11.45,20.59-16.8.69-.53,1.63-1.35,2.47-1.51l54.37-.05c4.27.82,4.11,6.18-.16,6.65l-52.67.03c-10.61,8.12-20.76,16.86-31.25,25.18-1.1.88-3.84,3.24-4.9,3.73-1.43.65-2.71.25-3.61-.96-.12-.16-.67-1.04-.67-1.1v-26.88c0-.29-5.22.04-5.86,0-13.1-.86-24.12-11.63-25.98-24.47-.55-23.98-.12-48.06-.22-72.06,1.16-13.1,11.78-23.96,24.86-25.37h165.33c13.08,1.57,23.67,12.18,24.9,25.33v70.59c-1.73,16.71-16.53,27.78-33.1,25.98-4.35-.47-4.16-6.1-.2-6.63,2.65-.35,5.78.27,8.51-.12,9.14-1.33,16.72-9.1,18.12-18.18.41-24.12.39-48.39,0-72.51-1.88-9.76-10.1-17.02-20-17.84H39.57c-10.55.75-18.98,8.45-20.43,18.94-.41,23.55-.41,47.19,0,70.74,1.33,9,7.59,16.33,16.53,18.43,4.29,1,8.74.22,13.12.61.71.08,2.2,1.61,2.2,2.24v23.35h0Z"/>
  <rect class="st1" x="162.6" y="108.25" width="7.65" height="29.33" rx="1.95" ry="1.95"/>
  <rect class="st1" x="148.97" y="114.87" width="7.65" height="16.06" rx="1.95" ry="1.95"/>
  <rect class="st1" x="176.21" y="114.87" width="7.65" height="16.06" rx="1.95" ry="1.95"/>
  <g>
    <path class="st2" d="M138.83,31.61c-.16.73-.05,3.6-.38,3.92-2.55,1.17-7.45-.32-7.26,3.81.1,2.05,1.26,5.24,1.86,7.32,3.5,12.07,7.65,23.97,11.11,36.06.47,1.09.86-.05,1.11-.63l12.4-34.93c-.86-2.38-1.45-5.1-2.42-7.42-1.59-3.83-5.19-2.94-8.58-4.13l-.21-3.98h29.41l-.21,3.98c-1.71.64-5.79.25-6.85,1.84s.36,5.7.86,7.55c3.32,12.07,7.24,24.89,11.12,36.81.25.78.49,2.26,1.29.8,3.05-12.04,8.19-24.17,10.7-36.28.63-3.05,1.92-7.87-1.67-9.42-1.13-.48-5.03-.96-5.42-1.26-.43-.33-.45-3.32-.46-4.03h24.55c.07,0,.32.28.25.43l-.44,3.59c-1.91.86-3.96,1.05-5.64,2.38-3.74,2.99-7.35,15.56-8.97,20.44-4.21,12.56-7.98,25.26-12.24,37.8-.14.29-.37.28-.64.31-2.31.26-5.11-.23-7.47,0l-13.84-42.28-.48-.14-14.82,42.1c-.14.29-.37.28-.64.31-2.42.28-5.42-.2-7.91-.04l-19.37-57.5c-.49-.93-1.19-1.65-2.19-2.02-1.12-.41-5.54-.97-5.98-1.28-.5-.36-.35-3.35-.56-4.11h29.98-.02Z"/>
    <path class="st2" d="M62.43,31.61c.14.14-.18,3.8-.37,3.92-1.83.41-3.88.34-5.68.81-.44.12-1.78.58-1.78,1.08v23.59h29.8v-23.78c0-.48-1.63-.91-2.05-1-1.69-.34-3.66-.39-5.39-.62l-.35-3.58c-.07-.16.18-.43.25-.43h27.22l-.19,4.01c-1.82.17-3.9.27-5.66.74-.68.17-1.82.44-1.98,1.27l-.02,52.53c-.02.29,0,.52.18.77.8,1.11,6.02,1.15,7.44,1.63l.41,3.8h-27.7l.42-3.79c.28-.44,7.41-.44,7.41-1.85v-25.12h-29.8v25.12c0,.47,1.12.86,1.52.96.88.23,5.9.64,6.1.87l.21,3.8h-27.5l.21-3.8c1.87-.44,3.85-.39,5.71-.88.72-.19,1.85-.47,1.9-1.35l.03-52.52c.02-.29,0-.52-.18-.77-.61-.85-6.18-1.28-7.46-1.41l-.19-4.01h27.5,0Z"/>
  </g>
</svg>